%TF.GenerationSoftware,KiCad,Pcbnew,7.0.7-7.0.7~ubuntu22.04.1*%
%TF.CreationDate,2023-09-17T14:22:32+02:00*%
%TF.ProjectId,100x100mm_all,31303078-3130-4306-9d6d-5f616c6c2e6b,rev?*%
%TF.SameCoordinates,Original*%
%TF.FileFunction,Drillmap*%
%TF.FilePolarity,Positive*%
%FSLAX45Y45*%
G04 Gerber Fmt 4.5, Leading zero omitted, Abs format (unit mm)*
G04 Created by KiCad (PCBNEW 7.0.7-7.0.7~ubuntu22.04.1) date 2023-09-17 14:22:32*
%MOMM*%
%LPD*%
G01*
G04 APERTURE LIST*
%ADD10C,0.100000*%
%ADD11C,0.200000*%
%ADD12C,0.040000*%
%ADD13C,0.050000*%
G04 APERTURE END LIST*
D10*
X12903200Y-13322300D02*
G75*
G03*
X13004800Y-13322300I50800J0D01*
G01*
X14554200Y-10845800D02*
X14554200Y-10255250D01*
X12496800Y-13246100D02*
X12496800Y-14605000D01*
X15100300Y-6591300D02*
G75*
G03*
X15100300Y-6692900I0J-50800D01*
G01*
X16205200Y-13322300D02*
G75*
G03*
X16306800Y-13322300I50800J0D01*
G01*
X12903200Y-5829300D02*
G75*
G03*
X13004800Y-5829300I50800J0D01*
G01*
X11163300Y-7607300D02*
G75*
G03*
X11163300Y-7708900I0J-50800D01*
G01*
X14655800Y-10255250D02*
X14655800Y-10845800D01*
X16306800Y-10033000D02*
X16306800Y-10909300D01*
X15760700Y-14058900D02*
G75*
G03*
X15760700Y-13957300I0J50800D01*
G01*
X16306800Y-13817600D02*
G75*
G03*
X16205200Y-13817600I-50800J0D01*
G01*
X17399000Y-9436100D02*
X17399000Y-7137400D01*
X10414000Y-12941300D02*
X11049000Y-12941300D01*
X17983200Y-6591300D02*
X18135600Y-6591300D01*
X16205200Y-13322300D02*
X16205200Y-12547600D01*
X15100300Y-9385300D02*
X15760700Y-9385300D01*
X17995900Y-12230100D02*
G75*
G03*
X18097500Y-12230100I50800J0D01*
G01*
X15100300Y-13957300D02*
X15760700Y-13957300D01*
X16205200Y-9537700D02*
X16205200Y-6324600D01*
X14554200Y-7480300D02*
X14554200Y-6324600D01*
X14109700Y-7200900D02*
G75*
G03*
X14109700Y-7099300I0J50800D01*
G01*
X14655800Y-11341100D02*
G75*
G03*
X14554200Y-11341100I-50800J0D01*
G01*
X14554200Y-7480300D02*
G75*
G03*
X14655800Y-7480300I50800J0D01*
G01*
X17500600Y-7137400D02*
G75*
G03*
X17399000Y-7137400I-50800J0D01*
G01*
X17373600Y-12687300D02*
G75*
G03*
X17373600Y-12788900I0J-50800D01*
G01*
X13004800Y-8483600D02*
G75*
G03*
X12903200Y-8483600I-50800J0D01*
G01*
X15760700Y-11772900D02*
G75*
G03*
X15760700Y-11671300I0J50800D01*
G01*
X14655800Y-5486400D02*
X14655800Y-5829300D01*
X10718800Y-11912600D02*
G75*
G03*
X10617200Y-11912600I-50800J0D01*
G01*
X17348200Y-13881100D02*
X17348200Y-13233400D01*
X10617200Y-12496800D02*
X10617200Y-11912600D01*
X13004800Y-8483600D02*
X13004800Y-10147300D01*
X16306800Y-13817600D02*
X16306800Y-14605000D01*
X14655800Y-13817600D02*
X14655800Y-14605000D01*
X14655800Y-10255250D02*
G75*
G03*
X14554200Y-10255250I-50800J0D01*
G01*
X16205200Y-14605000D02*
X16205200Y-13817600D01*
X16205200Y-5829300D02*
G75*
G03*
X16306800Y-5829300I50800J0D01*
G01*
X16205200Y-10909300D02*
G75*
G03*
X16306800Y-10909300I50800J0D01*
G01*
X11163300Y-10274300D02*
G75*
G03*
X11163300Y-10375900I0J-50800D01*
G01*
X14554200Y-5829300D02*
G75*
G03*
X14655800Y-5829300I50800J0D01*
G01*
X17348200Y-13881100D02*
G75*
G03*
X17449800Y-13881100I50800J0D01*
G01*
X15100300Y-10528300D02*
X15760700Y-10528300D01*
X17399000Y-12230100D02*
G75*
G03*
X17500600Y-12230100I50800J0D01*
G01*
X17526000Y-6692900D02*
X17373600Y-6692900D01*
X10617200Y-6070600D02*
X10617200Y-5486400D01*
X14554200Y-10845800D02*
G75*
G03*
X14655800Y-10845800I50800J0D01*
G01*
X16903700Y-7137400D02*
G75*
G03*
X16802100Y-7137400I-50800J0D01*
G01*
X16205200Y-14605000D02*
G75*
G03*
X16306800Y-14605000I50800J0D01*
G01*
X16802100Y-9436100D02*
X16802100Y-7137400D01*
X17500600Y-7137400D02*
X17500600Y-9436100D01*
X16306800Y-6324600D02*
G75*
G03*
X16205200Y-6324600I-50800J0D01*
G01*
X18097500Y-7137400D02*
G75*
G03*
X17995900Y-7137400I-50800J0D01*
G01*
X17983200Y-12687300D02*
G75*
G03*
X17983200Y-12788900I0J-50800D01*
G01*
X12496800Y-13246100D02*
G75*
G03*
X12395200Y-13246100I-50800J0D01*
G01*
X14109700Y-11518900D02*
G75*
G03*
X14109700Y-11417300I0J50800D01*
G01*
X15760700Y-8343900D02*
X15100300Y-8343900D01*
X10617200Y-8737600D02*
G75*
G03*
X10718800Y-8737600I50800J0D01*
G01*
X14554200Y-9766300D02*
G75*
G03*
X14655800Y-9766300I50800J0D01*
G01*
X9512300Y-10274300D02*
G75*
G03*
X9512300Y-10375900I0J-50800D01*
G01*
X15100300Y-11671300D02*
G75*
G03*
X15100300Y-11772900I0J-50800D01*
G01*
X10617200Y-12496800D02*
G75*
G03*
X10718800Y-12496800I50800J0D01*
G01*
X14655800Y-6324600D02*
G75*
G03*
X14554200Y-6324600I-50800J0D01*
G01*
X14554200Y-12052300D02*
G75*
G03*
X14655800Y-12052300I50800J0D01*
G01*
X15100300Y-9385300D02*
G75*
G03*
X15100300Y-9486900I0J-50800D01*
G01*
X10172700Y-7708900D02*
X9512300Y-7708900D01*
X12395200Y-14605000D02*
G75*
G03*
X12496800Y-14605000I50800J0D01*
G01*
X18135600Y-12788900D02*
X17983200Y-12788900D01*
X13449300Y-7099300D02*
G75*
G03*
X13449300Y-7200900I0J-50800D01*
G01*
X15100300Y-11671300D02*
X15760700Y-11671300D01*
X10718800Y-9232900D02*
X10718800Y-11404600D01*
X12471400Y-10375900D02*
G75*
G03*
X12471400Y-10274300I0J50800D01*
G01*
X9067800Y-5041900D02*
X18597900Y-5041900D01*
X18597900Y-14851400D01*
X9067800Y-14851400D01*
X9067800Y-5041900D01*
X16903700Y-9931400D02*
X16903700Y-12230100D01*
X14655800Y-5486400D02*
G75*
G03*
X14554200Y-5486400I-50800J0D01*
G01*
X17449800Y-5486400D02*
X17449800Y-6134100D01*
X16802100Y-9436100D02*
G75*
G03*
X16903700Y-9436100I50800J0D01*
G01*
X12903200Y-13322300D02*
X12903200Y-12547600D01*
X14109700Y-14058900D02*
G75*
G03*
X14109700Y-13957300I0J50800D01*
G01*
X11252200Y-14605000D02*
G75*
G03*
X11353800Y-14605000I50800J0D01*
G01*
X14655800Y-12547600D02*
G75*
G03*
X14554200Y-12547600I-50800J0D01*
G01*
X14655800Y-7975600D02*
G75*
G03*
X14554200Y-7975600I-50800J0D01*
G01*
X17348200Y-6134100D02*
X17348200Y-5486400D01*
X9512300Y-7607300D02*
G75*
G03*
X9512300Y-7708900I0J-50800D01*
G01*
X12903200Y-14605000D02*
G75*
G03*
X13004800Y-14605000I50800J0D01*
G01*
X13004800Y-5486400D02*
X13004800Y-5829300D01*
X14109700Y-13169900D02*
G75*
G03*
X14109700Y-13068300I0J50800D01*
G01*
X17995900Y-9436100D02*
X17995900Y-7137400D01*
X13004800Y-13817600D02*
G75*
G03*
X12903200Y-13817600I-50800J0D01*
G01*
X17995900Y-9436100D02*
G75*
G03*
X18097500Y-9436100I50800J0D01*
G01*
X14109700Y-14058900D02*
X13449300Y-14058900D01*
X16205200Y-10909300D02*
X16205200Y-10033000D01*
X15760700Y-12915900D02*
G75*
G03*
X15760700Y-12814300I0J50800D01*
G01*
X16306800Y-12547600D02*
G75*
G03*
X16205200Y-12547600I-50800J0D01*
G01*
X17348200Y-6134100D02*
G75*
G03*
X17449800Y-6134100I50800J0D01*
G01*
X14109700Y-9359900D02*
G75*
G03*
X14109700Y-9258300I0J50800D01*
G01*
X10210800Y-13246100D02*
X10210800Y-14605000D01*
X16878300Y-12788900D02*
X16725900Y-12788900D01*
X14109700Y-7200900D02*
X13449300Y-7200900D01*
X9512300Y-12941300D02*
X9906000Y-12941300D01*
X10718800Y-5486400D02*
G75*
G03*
X10617200Y-5486400I-50800J0D01*
G01*
X13449300Y-11417300D02*
X14109700Y-11417300D01*
X16306800Y-11404600D02*
G75*
G03*
X16205200Y-11404600I-50800J0D01*
G01*
X11163300Y-10274300D02*
X12471400Y-10274300D01*
X13004800Y-6324600D02*
G75*
G03*
X12903200Y-6324600I-50800J0D01*
G01*
X10718800Y-6578600D02*
G75*
G03*
X10617200Y-6578600I-50800J0D01*
G01*
X18097500Y-9931400D02*
X18097500Y-12230100D01*
X11049000Y-13042900D02*
X10414000Y-13042900D01*
X14554200Y-13322300D02*
G75*
G03*
X14655800Y-13322300I50800J0D01*
G01*
X11049000Y-13042900D02*
G75*
G03*
X11049000Y-12941300I0J50800D01*
G01*
X16205200Y-9537700D02*
G75*
G03*
X16306800Y-9537700I50800J0D01*
G01*
X15760700Y-12915900D02*
X15100300Y-12915900D01*
X17449800Y-13233400D02*
G75*
G03*
X17348200Y-13233400I-50800J0D01*
G01*
X15760700Y-9486900D02*
G75*
G03*
X15760700Y-9385300I0J50800D01*
G01*
X10617200Y-8737600D02*
X10617200Y-6578600D01*
X9512300Y-12941300D02*
G75*
G03*
X9512300Y-13042900I0J-50800D01*
G01*
X11557000Y-12941300D02*
X12204700Y-12941300D01*
X13004800Y-13817600D02*
X13004800Y-14605000D01*
X13449300Y-11417300D02*
G75*
G03*
X13449300Y-11518900I0J-50800D01*
G01*
X16802100Y-12230100D02*
X16802100Y-9931400D01*
X17983200Y-6591300D02*
G75*
G03*
X17983200Y-6692900I0J-50800D01*
G01*
X9512300Y-10274300D02*
X10172700Y-10274300D01*
X16306800Y-12547600D02*
X16306800Y-13322300D01*
X13004800Y-10642600D02*
G75*
G03*
X12903200Y-10642600I-50800J0D01*
G01*
X16725900Y-12687300D02*
G75*
G03*
X16725900Y-12788900I0J-50800D01*
G01*
X14655800Y-13817600D02*
G75*
G03*
X14554200Y-13817600I-50800J0D01*
G01*
X10172700Y-10375900D02*
G75*
G03*
X10172700Y-10274300I0J50800D01*
G01*
X14554200Y-13322300D02*
X14554200Y-12547600D01*
X17373600Y-6591300D02*
X17526000Y-6591300D01*
X13449300Y-13068300D02*
X14109700Y-13068300D01*
X14109700Y-11518900D02*
X13449300Y-11518900D01*
X10617200Y-11404600D02*
G75*
G03*
X10718800Y-11404600I50800J0D01*
G01*
X17526000Y-12788900D02*
G75*
G03*
X17526000Y-12687300I0J50800D01*
G01*
X9906000Y-13042900D02*
G75*
G03*
X9906000Y-12941300I0J50800D01*
G01*
X14655800Y-6324600D02*
X14655800Y-7480300D01*
X14655800Y-7975600D02*
X14655800Y-8623300D01*
X17995900Y-12230100D02*
X17995900Y-9931400D01*
X12903200Y-12052300D02*
G75*
G03*
X13004800Y-12052300I50800J0D01*
G01*
X17399000Y-9436100D02*
G75*
G03*
X17500600Y-9436100I50800J0D01*
G01*
X16725900Y-6591300D02*
X16878300Y-6591300D01*
X14554200Y-5829300D02*
X14554200Y-5486400D01*
X13449300Y-9258300D02*
G75*
G03*
X13449300Y-9359900I0J-50800D01*
G01*
X12903200Y-5829300D02*
X12903200Y-5486400D01*
X9512300Y-7607300D02*
X10172700Y-7607300D01*
X10109200Y-14605000D02*
X10109200Y-13246100D01*
X15760700Y-6692900D02*
G75*
G03*
X15760700Y-6591300I0J50800D01*
G01*
X15100300Y-12814300D02*
G75*
G03*
X15100300Y-12915900I0J-50800D01*
G01*
X15100300Y-10528300D02*
G75*
G03*
X15100300Y-10629900I0J-50800D01*
G01*
X16878300Y-12788900D02*
G75*
G03*
X16878300Y-12687300I0J50800D01*
G01*
X16306800Y-5486400D02*
X16306800Y-5829300D01*
X13004800Y-12547600D02*
G75*
G03*
X12903200Y-12547600I-50800J0D01*
G01*
X18135600Y-12788900D02*
G75*
G03*
X18135600Y-12687300I0J50800D01*
G01*
X10172700Y-10375900D02*
X9512300Y-10375900D01*
X15760700Y-6692900D02*
X15100300Y-6692900D01*
X10718800Y-11912600D02*
X10718800Y-12496800D01*
X14655800Y-12547600D02*
X14655800Y-13322300D01*
X16306800Y-5486400D02*
G75*
G03*
X16205200Y-5486400I-50800J0D01*
G01*
X13004800Y-6324600D02*
X13004800Y-7988300D01*
X14554200Y-12052300D02*
X14554200Y-11341100D01*
X15760700Y-11772900D02*
X15100300Y-11772900D01*
X12204700Y-13042900D02*
G75*
G03*
X12204700Y-12941300I0J50800D01*
G01*
X18135600Y-6692900D02*
X17983200Y-6692900D01*
X15760700Y-14058900D02*
X15100300Y-14058900D01*
X17373600Y-6591300D02*
G75*
G03*
X17373600Y-6692900I0J-50800D01*
G01*
X12903200Y-10147300D02*
G75*
G03*
X13004800Y-10147300I50800J0D01*
G01*
X16903700Y-9931400D02*
G75*
G03*
X16802100Y-9931400I-50800J0D01*
G01*
X17983200Y-12687300D02*
X18135600Y-12687300D01*
X10172700Y-7708900D02*
G75*
G03*
X10172700Y-7607300I0J50800D01*
G01*
X17399000Y-12230100D02*
X17399000Y-9931400D01*
X9906000Y-13042900D02*
X9512300Y-13042900D01*
X16205200Y-5829300D02*
X16205200Y-5486400D01*
X16802100Y-12230100D02*
G75*
G03*
X16903700Y-12230100I50800J0D01*
G01*
X16725900Y-12687300D02*
X16878300Y-12687300D01*
X10617200Y-11404600D02*
X10617200Y-9232900D01*
X14554200Y-8623300D02*
G75*
G03*
X14655800Y-8623300I50800J0D01*
G01*
X13449300Y-13957300D02*
X14109700Y-13957300D01*
X15100300Y-6591300D02*
X15760700Y-6591300D01*
X16725900Y-6591300D02*
G75*
G03*
X16725900Y-6692900I0J-50800D01*
G01*
X17526000Y-6692900D02*
G75*
G03*
X17526000Y-6591300I0J50800D01*
G01*
X10109200Y-14605000D02*
G75*
G03*
X10210800Y-14605000I50800J0D01*
G01*
X16903700Y-7137400D02*
X16903700Y-9436100D01*
X12903200Y-7988300D02*
G75*
G03*
X13004800Y-7988300I50800J0D01*
G01*
X12471400Y-7708900D02*
G75*
G03*
X12471400Y-7607300I0J50800D01*
G01*
X12903200Y-12052300D02*
X12903200Y-10642600D01*
X12395200Y-14605000D02*
X12395200Y-13246100D01*
X12903200Y-14605000D02*
X12903200Y-13817600D01*
X13449300Y-9258300D02*
X14109700Y-9258300D01*
X14554200Y-14605000D02*
G75*
G03*
X14655800Y-14605000I50800J0D01*
G01*
X14109700Y-9359900D02*
X13449300Y-9359900D01*
X17449800Y-13233400D02*
X17449800Y-13881100D01*
X12204700Y-13042900D02*
X11557000Y-13042900D01*
X14655800Y-9118600D02*
G75*
G03*
X14554200Y-9118600I-50800J0D01*
G01*
X16205200Y-12052300D02*
G75*
G03*
X16306800Y-12052300I50800J0D01*
G01*
X15100300Y-8242300D02*
G75*
G03*
X15100300Y-8343900I0J-50800D01*
G01*
X17373600Y-12687300D02*
X17526000Y-12687300D01*
X10210800Y-13246100D02*
G75*
G03*
X10109200Y-13246100I-50800J0D01*
G01*
X16306800Y-6324600D02*
X16306800Y-9537700D01*
X13004800Y-10642600D02*
X13004800Y-12052300D01*
X12903200Y-10147300D02*
X12903200Y-8483600D01*
X13449300Y-13957300D02*
G75*
G03*
X13449300Y-14058900I0J-50800D01*
G01*
X14655800Y-9118600D02*
X14655800Y-9766300D01*
X11353800Y-13246100D02*
G75*
G03*
X11252200Y-13246100I-50800J0D01*
G01*
X10718800Y-6578600D02*
X10718800Y-8737600D01*
X10718800Y-9232900D02*
G75*
G03*
X10617200Y-9232900I-50800J0D01*
G01*
X12903200Y-7988300D02*
X12903200Y-6324600D01*
X17526000Y-12788900D02*
X17373600Y-12788900D01*
X18097500Y-7137400D02*
X18097500Y-9436100D01*
X17500600Y-9931400D02*
G75*
G03*
X17399000Y-9931400I-50800J0D01*
G01*
X15760700Y-8343900D02*
G75*
G03*
X15760700Y-8242300I0J50800D01*
G01*
X16878300Y-6692900D02*
G75*
G03*
X16878300Y-6591300I0J50800D01*
G01*
X11353800Y-13246100D02*
X11353800Y-14605000D01*
X17449800Y-5486400D02*
G75*
G03*
X17348200Y-5486400I-50800J0D01*
G01*
X12471400Y-7708900D02*
X11163300Y-7708900D01*
X15760700Y-9486900D02*
X15100300Y-9486900D01*
X14655800Y-11341100D02*
X14655800Y-12052300D01*
X12471400Y-10375900D02*
X11163300Y-10375900D01*
X13004800Y-12547600D02*
X13004800Y-13322300D01*
X11557000Y-12941300D02*
G75*
G03*
X11557000Y-13042900I0J-50800D01*
G01*
X13004800Y-5486400D02*
G75*
G03*
X12903200Y-5486400I-50800J0D01*
G01*
X14554200Y-14605000D02*
X14554200Y-13817600D01*
X14554200Y-9766300D02*
X14554200Y-9118600D01*
X15760700Y-10629900D02*
G75*
G03*
X15760700Y-10528300I0J50800D01*
G01*
X10718800Y-5486400D02*
X10718800Y-6070600D01*
X14109700Y-13169900D02*
X13449300Y-13169900D01*
X14554200Y-8623300D02*
X14554200Y-7975600D01*
X10617200Y-6070600D02*
G75*
G03*
X10718800Y-6070600I50800J0D01*
G01*
X11163300Y-7607300D02*
X12471400Y-7607300D01*
X16878300Y-6692900D02*
X16725900Y-6692900D01*
X10414000Y-12941300D02*
G75*
G03*
X10414000Y-13042900I0J-50800D01*
G01*
X18135600Y-6692900D02*
G75*
G03*
X18135600Y-6591300I0J50800D01*
G01*
X16306800Y-10033000D02*
G75*
G03*
X16205200Y-10033000I-50800J0D01*
G01*
X15100300Y-8242300D02*
X15760700Y-8242300D01*
X17500600Y-9931400D02*
X17500600Y-12230100D01*
X16205200Y-12052300D02*
X16205200Y-11404600D01*
X18097500Y-9931400D02*
G75*
G03*
X17995900Y-9931400I-50800J0D01*
G01*
X15760700Y-10629900D02*
X15100300Y-10629900D01*
X13449300Y-13068300D02*
G75*
G03*
X13449300Y-13169900I0J-50800D01*
G01*
X13449300Y-7099300D02*
X14109700Y-7099300D01*
X15100300Y-12814300D02*
X15760700Y-12814300D01*
X15100300Y-13957300D02*
G75*
G03*
X15100300Y-14058900I0J-50800D01*
G01*
X11252200Y-14605000D02*
X11252200Y-13246100D01*
X16306800Y-11404600D02*
X16306800Y-12052300D01*
D11*
D12*
X9708200Y-6304600D02*
X9748200Y-6344600D01*
X9748200Y-6304600D02*
X9708200Y-6344600D01*
X9708200Y-8971600D02*
X9748200Y-9011600D01*
X9748200Y-8971600D02*
X9708200Y-9011600D01*
X9708200Y-11638600D02*
X9748200Y-11678600D01*
X9748200Y-11638600D02*
X9708200Y-11678600D01*
X9822500Y-6190300D02*
X9862500Y-6230300D01*
X9862500Y-6190300D02*
X9822500Y-6230300D01*
X9822500Y-6418900D02*
X9862500Y-6458900D01*
X9862500Y-6418900D02*
X9822500Y-6458900D01*
X9822500Y-8857300D02*
X9862500Y-8897300D01*
X9862500Y-8857300D02*
X9822500Y-8897300D01*
X9822500Y-9085900D02*
X9862500Y-9125900D01*
X9862500Y-9085900D02*
X9822500Y-9125900D01*
X9822500Y-11524300D02*
X9862500Y-11564300D01*
X9862500Y-11524300D02*
X9822500Y-11564300D01*
X9822500Y-11752900D02*
X9862500Y-11792900D01*
X9862500Y-11752900D02*
X9822500Y-11792900D01*
X9936800Y-6304600D02*
X9976800Y-6344600D01*
X9976800Y-6304600D02*
X9936800Y-6344600D01*
X9936800Y-8971600D02*
X9976800Y-9011600D01*
X9976800Y-8971600D02*
X9936800Y-9011600D01*
X9936800Y-11638600D02*
X9976800Y-11678600D01*
X9976800Y-11638600D02*
X9936800Y-11678600D01*
D13*
X9867500Y-6324600D02*
G75*
G03*
X9867500Y-6324600I-25000J0D01*
G01*
X9867500Y-8991600D02*
G75*
G03*
X9867500Y-8991600I-25000J0D01*
G01*
X9867500Y-11658600D02*
G75*
G03*
X9867500Y-11658600I-25000J0D01*
G01*
D11*
X9323577Y-15167884D02*
X9323577Y-14967884D01*
X9323577Y-14967884D02*
X9371196Y-14967884D01*
X9371196Y-14967884D02*
X9399767Y-14977408D01*
X9399767Y-14977408D02*
X9418815Y-14996455D01*
X9418815Y-14996455D02*
X9428339Y-15015503D01*
X9428339Y-15015503D02*
X9437863Y-15053598D01*
X9437863Y-15053598D02*
X9437863Y-15082169D01*
X9437863Y-15082169D02*
X9428339Y-15120265D01*
X9428339Y-15120265D02*
X9418815Y-15139312D01*
X9418815Y-15139312D02*
X9399767Y-15158360D01*
X9399767Y-15158360D02*
X9371196Y-15167884D01*
X9371196Y-15167884D02*
X9323577Y-15167884D01*
X9523577Y-15167884D02*
X9523577Y-15034550D01*
X9523577Y-15072646D02*
X9533101Y-15053598D01*
X9533101Y-15053598D02*
X9542624Y-15044074D01*
X9542624Y-15044074D02*
X9561672Y-15034550D01*
X9561672Y-15034550D02*
X9580720Y-15034550D01*
X9647386Y-15167884D02*
X9647386Y-15034550D01*
X9647386Y-14967884D02*
X9637863Y-14977408D01*
X9637863Y-14977408D02*
X9647386Y-14986931D01*
X9647386Y-14986931D02*
X9656910Y-14977408D01*
X9656910Y-14977408D02*
X9647386Y-14967884D01*
X9647386Y-14967884D02*
X9647386Y-14986931D01*
X9771196Y-15167884D02*
X9752148Y-15158360D01*
X9752148Y-15158360D02*
X9742624Y-15139312D01*
X9742624Y-15139312D02*
X9742624Y-14967884D01*
X9875958Y-15167884D02*
X9856910Y-15158360D01*
X9856910Y-15158360D02*
X9847386Y-15139312D01*
X9847386Y-15139312D02*
X9847386Y-14967884D01*
X10104529Y-15167884D02*
X10104529Y-14967884D01*
X10104529Y-14967884D02*
X10171196Y-15110741D01*
X10171196Y-15110741D02*
X10237863Y-14967884D01*
X10237863Y-14967884D02*
X10237863Y-15167884D01*
X10418815Y-15167884D02*
X10418815Y-15063122D01*
X10418815Y-15063122D02*
X10409291Y-15044074D01*
X10409291Y-15044074D02*
X10390244Y-15034550D01*
X10390244Y-15034550D02*
X10352148Y-15034550D01*
X10352148Y-15034550D02*
X10333101Y-15044074D01*
X10418815Y-15158360D02*
X10399767Y-15167884D01*
X10399767Y-15167884D02*
X10352148Y-15167884D01*
X10352148Y-15167884D02*
X10333101Y-15158360D01*
X10333101Y-15158360D02*
X10323577Y-15139312D01*
X10323577Y-15139312D02*
X10323577Y-15120265D01*
X10323577Y-15120265D02*
X10333101Y-15101217D01*
X10333101Y-15101217D02*
X10352148Y-15091693D01*
X10352148Y-15091693D02*
X10399767Y-15091693D01*
X10399767Y-15091693D02*
X10418815Y-15082169D01*
X10514053Y-15034550D02*
X10514053Y-15234550D01*
X10514053Y-15044074D02*
X10533101Y-15034550D01*
X10533101Y-15034550D02*
X10571196Y-15034550D01*
X10571196Y-15034550D02*
X10590244Y-15044074D01*
X10590244Y-15044074D02*
X10599767Y-15053598D01*
X10599767Y-15053598D02*
X10609291Y-15072646D01*
X10609291Y-15072646D02*
X10609291Y-15129788D01*
X10609291Y-15129788D02*
X10599767Y-15148836D01*
X10599767Y-15148836D02*
X10590244Y-15158360D01*
X10590244Y-15158360D02*
X10571196Y-15167884D01*
X10571196Y-15167884D02*
X10533101Y-15167884D01*
X10533101Y-15167884D02*
X10514053Y-15158360D01*
X10695005Y-15148836D02*
X10704529Y-15158360D01*
X10704529Y-15158360D02*
X10695005Y-15167884D01*
X10695005Y-15167884D02*
X10685482Y-15158360D01*
X10685482Y-15158360D02*
X10695005Y-15148836D01*
X10695005Y-15148836D02*
X10695005Y-15167884D01*
X10695005Y-15044074D02*
X10704529Y-15053598D01*
X10704529Y-15053598D02*
X10695005Y-15063122D01*
X10695005Y-15063122D02*
X10685482Y-15053598D01*
X10685482Y-15053598D02*
X10695005Y-15044074D01*
X10695005Y-15044074D02*
X10695005Y-15063122D01*
D12*
X9022800Y-15476400D02*
X9062800Y-15516400D01*
X9062800Y-15476400D02*
X9022800Y-15516400D01*
D11*
X9361672Y-15387884D02*
X9380720Y-15387884D01*
X9380720Y-15387884D02*
X9399767Y-15397408D01*
X9399767Y-15397408D02*
X9409291Y-15406931D01*
X9409291Y-15406931D02*
X9418815Y-15425979D01*
X9418815Y-15425979D02*
X9428339Y-15464074D01*
X9428339Y-15464074D02*
X9428339Y-15511693D01*
X9428339Y-15511693D02*
X9418815Y-15549788D01*
X9418815Y-15549788D02*
X9409291Y-15568836D01*
X9409291Y-15568836D02*
X9399767Y-15578360D01*
X9399767Y-15578360D02*
X9380720Y-15587884D01*
X9380720Y-15587884D02*
X9361672Y-15587884D01*
X9361672Y-15587884D02*
X9342624Y-15578360D01*
X9342624Y-15578360D02*
X9333101Y-15568836D01*
X9333101Y-15568836D02*
X9323577Y-15549788D01*
X9323577Y-15549788D02*
X9314053Y-15511693D01*
X9314053Y-15511693D02*
X9314053Y-15464074D01*
X9314053Y-15464074D02*
X9323577Y-15425979D01*
X9323577Y-15425979D02*
X9333101Y-15406931D01*
X9333101Y-15406931D02*
X9342624Y-15397408D01*
X9342624Y-15397408D02*
X9361672Y-15387884D01*
X9514053Y-15568836D02*
X9523577Y-15578360D01*
X9523577Y-15578360D02*
X9514053Y-15587884D01*
X9514053Y-15587884D02*
X9504529Y-15578360D01*
X9504529Y-15578360D02*
X9514053Y-15568836D01*
X9514053Y-15568836D02*
X9514053Y-15587884D01*
X9695005Y-15454550D02*
X9695005Y-15587884D01*
X9647386Y-15378360D02*
X9599767Y-15521217D01*
X9599767Y-15521217D02*
X9723577Y-15521217D01*
X9837863Y-15387884D02*
X9856910Y-15387884D01*
X9856910Y-15387884D02*
X9875958Y-15397408D01*
X9875958Y-15397408D02*
X9885482Y-15406931D01*
X9885482Y-15406931D02*
X9895005Y-15425979D01*
X9895005Y-15425979D02*
X9904529Y-15464074D01*
X9904529Y-15464074D02*
X9904529Y-15511693D01*
X9904529Y-15511693D02*
X9895005Y-15549788D01*
X9895005Y-15549788D02*
X9885482Y-15568836D01*
X9885482Y-15568836D02*
X9875958Y-15578360D01*
X9875958Y-15578360D02*
X9856910Y-15587884D01*
X9856910Y-15587884D02*
X9837863Y-15587884D01*
X9837863Y-15587884D02*
X9818815Y-15578360D01*
X9818815Y-15578360D02*
X9809291Y-15568836D01*
X9809291Y-15568836D02*
X9799767Y-15549788D01*
X9799767Y-15549788D02*
X9790244Y-15511693D01*
X9790244Y-15511693D02*
X9790244Y-15464074D01*
X9790244Y-15464074D02*
X9799767Y-15425979D01*
X9799767Y-15425979D02*
X9809291Y-15406931D01*
X9809291Y-15406931D02*
X9818815Y-15397408D01*
X9818815Y-15397408D02*
X9837863Y-15387884D01*
X10028339Y-15387884D02*
X10047386Y-15387884D01*
X10047386Y-15387884D02*
X10066434Y-15397408D01*
X10066434Y-15397408D02*
X10075958Y-15406931D01*
X10075958Y-15406931D02*
X10085482Y-15425979D01*
X10085482Y-15425979D02*
X10095005Y-15464074D01*
X10095005Y-15464074D02*
X10095005Y-15511693D01*
X10095005Y-15511693D02*
X10085482Y-15549788D01*
X10085482Y-15549788D02*
X10075958Y-15568836D01*
X10075958Y-15568836D02*
X10066434Y-15578360D01*
X10066434Y-15578360D02*
X10047386Y-15587884D01*
X10047386Y-15587884D02*
X10028339Y-15587884D01*
X10028339Y-15587884D02*
X10009291Y-15578360D01*
X10009291Y-15578360D02*
X9999767Y-15568836D01*
X9999767Y-15568836D02*
X9990244Y-15549788D01*
X9990244Y-15549788D02*
X9980720Y-15511693D01*
X9980720Y-15511693D02*
X9980720Y-15464074D01*
X9980720Y-15464074D02*
X9990244Y-15425979D01*
X9990244Y-15425979D02*
X9999767Y-15406931D01*
X9999767Y-15406931D02*
X10009291Y-15397408D01*
X10009291Y-15397408D02*
X10028339Y-15387884D01*
X10180720Y-15587884D02*
X10180720Y-15454550D01*
X10180720Y-15473598D02*
X10190244Y-15464074D01*
X10190244Y-15464074D02*
X10209291Y-15454550D01*
X10209291Y-15454550D02*
X10237863Y-15454550D01*
X10237863Y-15454550D02*
X10256910Y-15464074D01*
X10256910Y-15464074D02*
X10266434Y-15483122D01*
X10266434Y-15483122D02*
X10266434Y-15587884D01*
X10266434Y-15483122D02*
X10275958Y-15464074D01*
X10275958Y-15464074D02*
X10295005Y-15454550D01*
X10295005Y-15454550D02*
X10323577Y-15454550D01*
X10323577Y-15454550D02*
X10342625Y-15464074D01*
X10342625Y-15464074D02*
X10352148Y-15483122D01*
X10352148Y-15483122D02*
X10352148Y-15587884D01*
X10447386Y-15587884D02*
X10447386Y-15454550D01*
X10447386Y-15473598D02*
X10456910Y-15464074D01*
X10456910Y-15464074D02*
X10475958Y-15454550D01*
X10475958Y-15454550D02*
X10504529Y-15454550D01*
X10504529Y-15454550D02*
X10523577Y-15464074D01*
X10523577Y-15464074D02*
X10533101Y-15483122D01*
X10533101Y-15483122D02*
X10533101Y-15587884D01*
X10533101Y-15483122D02*
X10542625Y-15464074D01*
X10542625Y-15464074D02*
X10561672Y-15454550D01*
X10561672Y-15454550D02*
X10590244Y-15454550D01*
X10590244Y-15454550D02*
X10609291Y-15464074D01*
X10609291Y-15464074D02*
X10618815Y-15483122D01*
X10618815Y-15483122D02*
X10618815Y-15587884D01*
X11009291Y-15378360D02*
X10837863Y-15635503D01*
X11266434Y-15387884D02*
X11285482Y-15387884D01*
X11285482Y-15387884D02*
X11304529Y-15397408D01*
X11304529Y-15397408D02*
X11314053Y-15406931D01*
X11314053Y-15406931D02*
X11323577Y-15425979D01*
X11323577Y-15425979D02*
X11333101Y-15464074D01*
X11333101Y-15464074D02*
X11333101Y-15511693D01*
X11333101Y-15511693D02*
X11323577Y-15549788D01*
X11323577Y-15549788D02*
X11314053Y-15568836D01*
X11314053Y-15568836D02*
X11304529Y-15578360D01*
X11304529Y-15578360D02*
X11285482Y-15587884D01*
X11285482Y-15587884D02*
X11266434Y-15587884D01*
X11266434Y-15587884D02*
X11247386Y-15578360D01*
X11247386Y-15578360D02*
X11237863Y-15568836D01*
X11237863Y-15568836D02*
X11228339Y-15549788D01*
X11228339Y-15549788D02*
X11218815Y-15511693D01*
X11218815Y-15511693D02*
X11218815Y-15464074D01*
X11218815Y-15464074D02*
X11228339Y-15425979D01*
X11228339Y-15425979D02*
X11237863Y-15406931D01*
X11237863Y-15406931D02*
X11247386Y-15397408D01*
X11247386Y-15397408D02*
X11266434Y-15387884D01*
X11418815Y-15568836D02*
X11428339Y-15578360D01*
X11428339Y-15578360D02*
X11418815Y-15587884D01*
X11418815Y-15587884D02*
X11409291Y-15578360D01*
X11409291Y-15578360D02*
X11418815Y-15568836D01*
X11418815Y-15568836D02*
X11418815Y-15587884D01*
X11552148Y-15387884D02*
X11571196Y-15387884D01*
X11571196Y-15387884D02*
X11590244Y-15397408D01*
X11590244Y-15397408D02*
X11599767Y-15406931D01*
X11599767Y-15406931D02*
X11609291Y-15425979D01*
X11609291Y-15425979D02*
X11618815Y-15464074D01*
X11618815Y-15464074D02*
X11618815Y-15511693D01*
X11618815Y-15511693D02*
X11609291Y-15549788D01*
X11609291Y-15549788D02*
X11599767Y-15568836D01*
X11599767Y-15568836D02*
X11590244Y-15578360D01*
X11590244Y-15578360D02*
X11571196Y-15587884D01*
X11571196Y-15587884D02*
X11552148Y-15587884D01*
X11552148Y-15587884D02*
X11533101Y-15578360D01*
X11533101Y-15578360D02*
X11523577Y-15568836D01*
X11523577Y-15568836D02*
X11514053Y-15549788D01*
X11514053Y-15549788D02*
X11504529Y-15511693D01*
X11504529Y-15511693D02*
X11504529Y-15464074D01*
X11504529Y-15464074D02*
X11514053Y-15425979D01*
X11514053Y-15425979D02*
X11523577Y-15406931D01*
X11523577Y-15406931D02*
X11533101Y-15397408D01*
X11533101Y-15397408D02*
X11552148Y-15387884D01*
X11809291Y-15587884D02*
X11695006Y-15587884D01*
X11752148Y-15587884D02*
X11752148Y-15387884D01*
X11752148Y-15387884D02*
X11733101Y-15416455D01*
X11733101Y-15416455D02*
X11714053Y-15435503D01*
X11714053Y-15435503D02*
X11695006Y-15445027D01*
X11990244Y-15387884D02*
X11895006Y-15387884D01*
X11895006Y-15387884D02*
X11885482Y-15483122D01*
X11885482Y-15483122D02*
X11895006Y-15473598D01*
X11895006Y-15473598D02*
X11914053Y-15464074D01*
X11914053Y-15464074D02*
X11961672Y-15464074D01*
X11961672Y-15464074D02*
X11980720Y-15473598D01*
X11980720Y-15473598D02*
X11990244Y-15483122D01*
X11990244Y-15483122D02*
X11999767Y-15502169D01*
X11999767Y-15502169D02*
X11999767Y-15549788D01*
X11999767Y-15549788D02*
X11990244Y-15568836D01*
X11990244Y-15568836D02*
X11980720Y-15578360D01*
X11980720Y-15578360D02*
X11961672Y-15587884D01*
X11961672Y-15587884D02*
X11914053Y-15587884D01*
X11914053Y-15587884D02*
X11895006Y-15578360D01*
X11895006Y-15578360D02*
X11885482Y-15568836D01*
X12066434Y-15387884D02*
X12199767Y-15387884D01*
X12199767Y-15387884D02*
X12114053Y-15587884D01*
X12266434Y-15387884D02*
X12266434Y-15425979D01*
X12342625Y-15387884D02*
X12342625Y-15425979D01*
X12637863Y-15664074D02*
X12628339Y-15654550D01*
X12628339Y-15654550D02*
X12609291Y-15625979D01*
X12609291Y-15625979D02*
X12599768Y-15606931D01*
X12599768Y-15606931D02*
X12590244Y-15578360D01*
X12590244Y-15578360D02*
X12580720Y-15530741D01*
X12580720Y-15530741D02*
X12580720Y-15492646D01*
X12580720Y-15492646D02*
X12590244Y-15445027D01*
X12590244Y-15445027D02*
X12599768Y-15416455D01*
X12599768Y-15416455D02*
X12609291Y-15397408D01*
X12609291Y-15397408D02*
X12628339Y-15368836D01*
X12628339Y-15368836D02*
X12637863Y-15359312D01*
X12818815Y-15587884D02*
X12704529Y-15587884D01*
X12761672Y-15587884D02*
X12761672Y-15387884D01*
X12761672Y-15387884D02*
X12742625Y-15416455D01*
X12742625Y-15416455D02*
X12723577Y-15435503D01*
X12723577Y-15435503D02*
X12704529Y-15445027D01*
X12895006Y-15406931D02*
X12904529Y-15397408D01*
X12904529Y-15397408D02*
X12923577Y-15387884D01*
X12923577Y-15387884D02*
X12971196Y-15387884D01*
X12971196Y-15387884D02*
X12990244Y-15397408D01*
X12990244Y-15397408D02*
X12999768Y-15406931D01*
X12999768Y-15406931D02*
X13009291Y-15425979D01*
X13009291Y-15425979D02*
X13009291Y-15445027D01*
X13009291Y-15445027D02*
X12999768Y-15473598D01*
X12999768Y-15473598D02*
X12885482Y-15587884D01*
X12885482Y-15587884D02*
X13009291Y-15587884D01*
X13247387Y-15587884D02*
X13247387Y-15387884D01*
X13333101Y-15587884D02*
X13333101Y-15483122D01*
X13333101Y-15483122D02*
X13323577Y-15464074D01*
X13323577Y-15464074D02*
X13304530Y-15454550D01*
X13304530Y-15454550D02*
X13275958Y-15454550D01*
X13275958Y-15454550D02*
X13256910Y-15464074D01*
X13256910Y-15464074D02*
X13247387Y-15473598D01*
X13456910Y-15587884D02*
X13437863Y-15578360D01*
X13437863Y-15578360D02*
X13428339Y-15568836D01*
X13428339Y-15568836D02*
X13418815Y-15549788D01*
X13418815Y-15549788D02*
X13418815Y-15492646D01*
X13418815Y-15492646D02*
X13428339Y-15473598D01*
X13428339Y-15473598D02*
X13437863Y-15464074D01*
X13437863Y-15464074D02*
X13456910Y-15454550D01*
X13456910Y-15454550D02*
X13485482Y-15454550D01*
X13485482Y-15454550D02*
X13504530Y-15464074D01*
X13504530Y-15464074D02*
X13514053Y-15473598D01*
X13514053Y-15473598D02*
X13523577Y-15492646D01*
X13523577Y-15492646D02*
X13523577Y-15549788D01*
X13523577Y-15549788D02*
X13514053Y-15568836D01*
X13514053Y-15568836D02*
X13504530Y-15578360D01*
X13504530Y-15578360D02*
X13485482Y-15587884D01*
X13485482Y-15587884D02*
X13456910Y-15587884D01*
X13637863Y-15587884D02*
X13618815Y-15578360D01*
X13618815Y-15578360D02*
X13609291Y-15559312D01*
X13609291Y-15559312D02*
X13609291Y-15387884D01*
X13790244Y-15578360D02*
X13771196Y-15587884D01*
X13771196Y-15587884D02*
X13733101Y-15587884D01*
X13733101Y-15587884D02*
X13714053Y-15578360D01*
X13714053Y-15578360D02*
X13704530Y-15559312D01*
X13704530Y-15559312D02*
X13704530Y-15483122D01*
X13704530Y-15483122D02*
X13714053Y-15464074D01*
X13714053Y-15464074D02*
X13733101Y-15454550D01*
X13733101Y-15454550D02*
X13771196Y-15454550D01*
X13771196Y-15454550D02*
X13790244Y-15464074D01*
X13790244Y-15464074D02*
X13799768Y-15483122D01*
X13799768Y-15483122D02*
X13799768Y-15502169D01*
X13799768Y-15502169D02*
X13704530Y-15521217D01*
X13875958Y-15578360D02*
X13895006Y-15587884D01*
X13895006Y-15587884D02*
X13933101Y-15587884D01*
X13933101Y-15587884D02*
X13952149Y-15578360D01*
X13952149Y-15578360D02*
X13961672Y-15559312D01*
X13961672Y-15559312D02*
X13961672Y-15549788D01*
X13961672Y-15549788D02*
X13952149Y-15530741D01*
X13952149Y-15530741D02*
X13933101Y-15521217D01*
X13933101Y-15521217D02*
X13904530Y-15521217D01*
X13904530Y-15521217D02*
X13885482Y-15511693D01*
X13885482Y-15511693D02*
X13875958Y-15492646D01*
X13875958Y-15492646D02*
X13875958Y-15483122D01*
X13875958Y-15483122D02*
X13885482Y-15464074D01*
X13885482Y-15464074D02*
X13904530Y-15454550D01*
X13904530Y-15454550D02*
X13933101Y-15454550D01*
X13933101Y-15454550D02*
X13952149Y-15464074D01*
X14028339Y-15664074D02*
X14037863Y-15654550D01*
X14037863Y-15654550D02*
X14056911Y-15625979D01*
X14056911Y-15625979D02*
X14066434Y-15606931D01*
X14066434Y-15606931D02*
X14075958Y-15578360D01*
X14075958Y-15578360D02*
X14085482Y-15530741D01*
X14085482Y-15530741D02*
X14085482Y-15492646D01*
X14085482Y-15492646D02*
X14075958Y-15445027D01*
X14075958Y-15445027D02*
X14066434Y-15416455D01*
X14066434Y-15416455D02*
X14056911Y-15397408D01*
X14056911Y-15397408D02*
X14037863Y-15368836D01*
X14037863Y-15368836D02*
X14028339Y-15359312D01*
D13*
X9062800Y-15760400D02*
G75*
G03*
X9062800Y-15760400I-25000J0D01*
G01*
D11*
X9361672Y-15651884D02*
X9380720Y-15651884D01*
X9380720Y-15651884D02*
X9399767Y-15661408D01*
X9399767Y-15661408D02*
X9409291Y-15670931D01*
X9409291Y-15670931D02*
X9418815Y-15689979D01*
X9418815Y-15689979D02*
X9428339Y-15728074D01*
X9428339Y-15728074D02*
X9428339Y-15775693D01*
X9428339Y-15775693D02*
X9418815Y-15813788D01*
X9418815Y-15813788D02*
X9409291Y-15832836D01*
X9409291Y-15832836D02*
X9399767Y-15842360D01*
X9399767Y-15842360D02*
X9380720Y-15851884D01*
X9380720Y-15851884D02*
X9361672Y-15851884D01*
X9361672Y-15851884D02*
X9342624Y-15842360D01*
X9342624Y-15842360D02*
X9333101Y-15832836D01*
X9333101Y-15832836D02*
X9323577Y-15813788D01*
X9323577Y-15813788D02*
X9314053Y-15775693D01*
X9314053Y-15775693D02*
X9314053Y-15728074D01*
X9314053Y-15728074D02*
X9323577Y-15689979D01*
X9323577Y-15689979D02*
X9333101Y-15670931D01*
X9333101Y-15670931D02*
X9342624Y-15661408D01*
X9342624Y-15661408D02*
X9361672Y-15651884D01*
X9514053Y-15832836D02*
X9523577Y-15842360D01*
X9523577Y-15842360D02*
X9514053Y-15851884D01*
X9514053Y-15851884D02*
X9504529Y-15842360D01*
X9504529Y-15842360D02*
X9514053Y-15832836D01*
X9514053Y-15832836D02*
X9514053Y-15851884D01*
X9704529Y-15651884D02*
X9609291Y-15651884D01*
X9609291Y-15651884D02*
X9599767Y-15747122D01*
X9599767Y-15747122D02*
X9609291Y-15737598D01*
X9609291Y-15737598D02*
X9628339Y-15728074D01*
X9628339Y-15728074D02*
X9675958Y-15728074D01*
X9675958Y-15728074D02*
X9695005Y-15737598D01*
X9695005Y-15737598D02*
X9704529Y-15747122D01*
X9704529Y-15747122D02*
X9714053Y-15766169D01*
X9714053Y-15766169D02*
X9714053Y-15813788D01*
X9714053Y-15813788D02*
X9704529Y-15832836D01*
X9704529Y-15832836D02*
X9695005Y-15842360D01*
X9695005Y-15842360D02*
X9675958Y-15851884D01*
X9675958Y-15851884D02*
X9628339Y-15851884D01*
X9628339Y-15851884D02*
X9609291Y-15842360D01*
X9609291Y-15842360D02*
X9599767Y-15832836D01*
X9837863Y-15651884D02*
X9856910Y-15651884D01*
X9856910Y-15651884D02*
X9875958Y-15661408D01*
X9875958Y-15661408D02*
X9885482Y-15670931D01*
X9885482Y-15670931D02*
X9895005Y-15689979D01*
X9895005Y-15689979D02*
X9904529Y-15728074D01*
X9904529Y-15728074D02*
X9904529Y-15775693D01*
X9904529Y-15775693D02*
X9895005Y-15813788D01*
X9895005Y-15813788D02*
X9885482Y-15832836D01*
X9885482Y-15832836D02*
X9875958Y-15842360D01*
X9875958Y-15842360D02*
X9856910Y-15851884D01*
X9856910Y-15851884D02*
X9837863Y-15851884D01*
X9837863Y-15851884D02*
X9818815Y-15842360D01*
X9818815Y-15842360D02*
X9809291Y-15832836D01*
X9809291Y-15832836D02*
X9799767Y-15813788D01*
X9799767Y-15813788D02*
X9790244Y-15775693D01*
X9790244Y-15775693D02*
X9790244Y-15728074D01*
X9790244Y-15728074D02*
X9799767Y-15689979D01*
X9799767Y-15689979D02*
X9809291Y-15670931D01*
X9809291Y-15670931D02*
X9818815Y-15661408D01*
X9818815Y-15661408D02*
X9837863Y-15651884D01*
X10028339Y-15651884D02*
X10047386Y-15651884D01*
X10047386Y-15651884D02*
X10066434Y-15661408D01*
X10066434Y-15661408D02*
X10075958Y-15670931D01*
X10075958Y-15670931D02*
X10085482Y-15689979D01*
X10085482Y-15689979D02*
X10095005Y-15728074D01*
X10095005Y-15728074D02*
X10095005Y-15775693D01*
X10095005Y-15775693D02*
X10085482Y-15813788D01*
X10085482Y-15813788D02*
X10075958Y-15832836D01*
X10075958Y-15832836D02*
X10066434Y-15842360D01*
X10066434Y-15842360D02*
X10047386Y-15851884D01*
X10047386Y-15851884D02*
X10028339Y-15851884D01*
X10028339Y-15851884D02*
X10009291Y-15842360D01*
X10009291Y-15842360D02*
X9999767Y-15832836D01*
X9999767Y-15832836D02*
X9990244Y-15813788D01*
X9990244Y-15813788D02*
X9980720Y-15775693D01*
X9980720Y-15775693D02*
X9980720Y-15728074D01*
X9980720Y-15728074D02*
X9990244Y-15689979D01*
X9990244Y-15689979D02*
X9999767Y-15670931D01*
X9999767Y-15670931D02*
X10009291Y-15661408D01*
X10009291Y-15661408D02*
X10028339Y-15651884D01*
X10180720Y-15851884D02*
X10180720Y-15718550D01*
X10180720Y-15737598D02*
X10190244Y-15728074D01*
X10190244Y-15728074D02*
X10209291Y-15718550D01*
X10209291Y-15718550D02*
X10237863Y-15718550D01*
X10237863Y-15718550D02*
X10256910Y-15728074D01*
X10256910Y-15728074D02*
X10266434Y-15747122D01*
X10266434Y-15747122D02*
X10266434Y-15851884D01*
X10266434Y-15747122D02*
X10275958Y-15728074D01*
X10275958Y-15728074D02*
X10295005Y-15718550D01*
X10295005Y-15718550D02*
X10323577Y-15718550D01*
X10323577Y-15718550D02*
X10342625Y-15728074D01*
X10342625Y-15728074D02*
X10352148Y-15747122D01*
X10352148Y-15747122D02*
X10352148Y-15851884D01*
X10447386Y-15851884D02*
X10447386Y-15718550D01*
X10447386Y-15737598D02*
X10456910Y-15728074D01*
X10456910Y-15728074D02*
X10475958Y-15718550D01*
X10475958Y-15718550D02*
X10504529Y-15718550D01*
X10504529Y-15718550D02*
X10523577Y-15728074D01*
X10523577Y-15728074D02*
X10533101Y-15747122D01*
X10533101Y-15747122D02*
X10533101Y-15851884D01*
X10533101Y-15747122D02*
X10542625Y-15728074D01*
X10542625Y-15728074D02*
X10561672Y-15718550D01*
X10561672Y-15718550D02*
X10590244Y-15718550D01*
X10590244Y-15718550D02*
X10609291Y-15728074D01*
X10609291Y-15728074D02*
X10618815Y-15747122D01*
X10618815Y-15747122D02*
X10618815Y-15851884D01*
X11009291Y-15642360D02*
X10837863Y-15899503D01*
X11266434Y-15651884D02*
X11285482Y-15651884D01*
X11285482Y-15651884D02*
X11304529Y-15661408D01*
X11304529Y-15661408D02*
X11314053Y-15670931D01*
X11314053Y-15670931D02*
X11323577Y-15689979D01*
X11323577Y-15689979D02*
X11333101Y-15728074D01*
X11333101Y-15728074D02*
X11333101Y-15775693D01*
X11333101Y-15775693D02*
X11323577Y-15813788D01*
X11323577Y-15813788D02*
X11314053Y-15832836D01*
X11314053Y-15832836D02*
X11304529Y-15842360D01*
X11304529Y-15842360D02*
X11285482Y-15851884D01*
X11285482Y-15851884D02*
X11266434Y-15851884D01*
X11266434Y-15851884D02*
X11247386Y-15842360D01*
X11247386Y-15842360D02*
X11237863Y-15832836D01*
X11237863Y-15832836D02*
X11228339Y-15813788D01*
X11228339Y-15813788D02*
X11218815Y-15775693D01*
X11218815Y-15775693D02*
X11218815Y-15728074D01*
X11218815Y-15728074D02*
X11228339Y-15689979D01*
X11228339Y-15689979D02*
X11237863Y-15670931D01*
X11237863Y-15670931D02*
X11247386Y-15661408D01*
X11247386Y-15661408D02*
X11266434Y-15651884D01*
X11418815Y-15832836D02*
X11428339Y-15842360D01*
X11428339Y-15842360D02*
X11418815Y-15851884D01*
X11418815Y-15851884D02*
X11409291Y-15842360D01*
X11409291Y-15842360D02*
X11418815Y-15832836D01*
X11418815Y-15832836D02*
X11418815Y-15851884D01*
X11552148Y-15651884D02*
X11571196Y-15651884D01*
X11571196Y-15651884D02*
X11590244Y-15661408D01*
X11590244Y-15661408D02*
X11599767Y-15670931D01*
X11599767Y-15670931D02*
X11609291Y-15689979D01*
X11609291Y-15689979D02*
X11618815Y-15728074D01*
X11618815Y-15728074D02*
X11618815Y-15775693D01*
X11618815Y-15775693D02*
X11609291Y-15813788D01*
X11609291Y-15813788D02*
X11599767Y-15832836D01*
X11599767Y-15832836D02*
X11590244Y-15842360D01*
X11590244Y-15842360D02*
X11571196Y-15851884D01*
X11571196Y-15851884D02*
X11552148Y-15851884D01*
X11552148Y-15851884D02*
X11533101Y-15842360D01*
X11533101Y-15842360D02*
X11523577Y-15832836D01*
X11523577Y-15832836D02*
X11514053Y-15813788D01*
X11514053Y-15813788D02*
X11504529Y-15775693D01*
X11504529Y-15775693D02*
X11504529Y-15728074D01*
X11504529Y-15728074D02*
X11514053Y-15689979D01*
X11514053Y-15689979D02*
X11523577Y-15670931D01*
X11523577Y-15670931D02*
X11533101Y-15661408D01*
X11533101Y-15661408D02*
X11552148Y-15651884D01*
X11809291Y-15851884D02*
X11695006Y-15851884D01*
X11752148Y-15851884D02*
X11752148Y-15651884D01*
X11752148Y-15651884D02*
X11733101Y-15680455D01*
X11733101Y-15680455D02*
X11714053Y-15699503D01*
X11714053Y-15699503D02*
X11695006Y-15709027D01*
X11904529Y-15851884D02*
X11942625Y-15851884D01*
X11942625Y-15851884D02*
X11961672Y-15842360D01*
X11961672Y-15842360D02*
X11971196Y-15832836D01*
X11971196Y-15832836D02*
X11990244Y-15804265D01*
X11990244Y-15804265D02*
X11999767Y-15766169D01*
X11999767Y-15766169D02*
X11999767Y-15689979D01*
X11999767Y-15689979D02*
X11990244Y-15670931D01*
X11990244Y-15670931D02*
X11980720Y-15661408D01*
X11980720Y-15661408D02*
X11961672Y-15651884D01*
X11961672Y-15651884D02*
X11923577Y-15651884D01*
X11923577Y-15651884D02*
X11904529Y-15661408D01*
X11904529Y-15661408D02*
X11895006Y-15670931D01*
X11895006Y-15670931D02*
X11885482Y-15689979D01*
X11885482Y-15689979D02*
X11885482Y-15737598D01*
X11885482Y-15737598D02*
X11895006Y-15756646D01*
X11895006Y-15756646D02*
X11904529Y-15766169D01*
X11904529Y-15766169D02*
X11923577Y-15775693D01*
X11923577Y-15775693D02*
X11961672Y-15775693D01*
X11961672Y-15775693D02*
X11980720Y-15766169D01*
X11980720Y-15766169D02*
X11990244Y-15756646D01*
X11990244Y-15756646D02*
X11999767Y-15737598D01*
X12066434Y-15651884D02*
X12199767Y-15651884D01*
X12199767Y-15651884D02*
X12114053Y-15851884D01*
X12266434Y-15651884D02*
X12266434Y-15689979D01*
X12342625Y-15651884D02*
X12342625Y-15689979D01*
X12637863Y-15928074D02*
X12628339Y-15918550D01*
X12628339Y-15918550D02*
X12609291Y-15889979D01*
X12609291Y-15889979D02*
X12599768Y-15870931D01*
X12599768Y-15870931D02*
X12590244Y-15842360D01*
X12590244Y-15842360D02*
X12580720Y-15794741D01*
X12580720Y-15794741D02*
X12580720Y-15756646D01*
X12580720Y-15756646D02*
X12590244Y-15709027D01*
X12590244Y-15709027D02*
X12599768Y-15680455D01*
X12599768Y-15680455D02*
X12609291Y-15661408D01*
X12609291Y-15661408D02*
X12628339Y-15632836D01*
X12628339Y-15632836D02*
X12637863Y-15623312D01*
X12695006Y-15651884D02*
X12818815Y-15651884D01*
X12818815Y-15651884D02*
X12752148Y-15728074D01*
X12752148Y-15728074D02*
X12780720Y-15728074D01*
X12780720Y-15728074D02*
X12799768Y-15737598D01*
X12799768Y-15737598D02*
X12809291Y-15747122D01*
X12809291Y-15747122D02*
X12818815Y-15766169D01*
X12818815Y-15766169D02*
X12818815Y-15813788D01*
X12818815Y-15813788D02*
X12809291Y-15832836D01*
X12809291Y-15832836D02*
X12799768Y-15842360D01*
X12799768Y-15842360D02*
X12780720Y-15851884D01*
X12780720Y-15851884D02*
X12723577Y-15851884D01*
X12723577Y-15851884D02*
X12704529Y-15842360D01*
X12704529Y-15842360D02*
X12695006Y-15832836D01*
X13056910Y-15851884D02*
X13056910Y-15651884D01*
X13142625Y-15851884D02*
X13142625Y-15747122D01*
X13142625Y-15747122D02*
X13133101Y-15728074D01*
X13133101Y-15728074D02*
X13114053Y-15718550D01*
X13114053Y-15718550D02*
X13085482Y-15718550D01*
X13085482Y-15718550D02*
X13066434Y-15728074D01*
X13066434Y-15728074D02*
X13056910Y-15737598D01*
X13266434Y-15851884D02*
X13247387Y-15842360D01*
X13247387Y-15842360D02*
X13237863Y-15832836D01*
X13237863Y-15832836D02*
X13228339Y-15813788D01*
X13228339Y-15813788D02*
X13228339Y-15756646D01*
X13228339Y-15756646D02*
X13237863Y-15737598D01*
X13237863Y-15737598D02*
X13247387Y-15728074D01*
X13247387Y-15728074D02*
X13266434Y-15718550D01*
X13266434Y-15718550D02*
X13295006Y-15718550D01*
X13295006Y-15718550D02*
X13314053Y-15728074D01*
X13314053Y-15728074D02*
X13323577Y-15737598D01*
X13323577Y-15737598D02*
X13333101Y-15756646D01*
X13333101Y-15756646D02*
X13333101Y-15813788D01*
X13333101Y-15813788D02*
X13323577Y-15832836D01*
X13323577Y-15832836D02*
X13314053Y-15842360D01*
X13314053Y-15842360D02*
X13295006Y-15851884D01*
X13295006Y-15851884D02*
X13266434Y-15851884D01*
X13447387Y-15851884D02*
X13428339Y-15842360D01*
X13428339Y-15842360D02*
X13418815Y-15823312D01*
X13418815Y-15823312D02*
X13418815Y-15651884D01*
X13599768Y-15842360D02*
X13580720Y-15851884D01*
X13580720Y-15851884D02*
X13542625Y-15851884D01*
X13542625Y-15851884D02*
X13523577Y-15842360D01*
X13523577Y-15842360D02*
X13514053Y-15823312D01*
X13514053Y-15823312D02*
X13514053Y-15747122D01*
X13514053Y-15747122D02*
X13523577Y-15728074D01*
X13523577Y-15728074D02*
X13542625Y-15718550D01*
X13542625Y-15718550D02*
X13580720Y-15718550D01*
X13580720Y-15718550D02*
X13599768Y-15728074D01*
X13599768Y-15728074D02*
X13609291Y-15747122D01*
X13609291Y-15747122D02*
X13609291Y-15766169D01*
X13609291Y-15766169D02*
X13514053Y-15785217D01*
X13685482Y-15842360D02*
X13704530Y-15851884D01*
X13704530Y-15851884D02*
X13742625Y-15851884D01*
X13742625Y-15851884D02*
X13761672Y-15842360D01*
X13761672Y-15842360D02*
X13771196Y-15823312D01*
X13771196Y-15823312D02*
X13771196Y-15813788D01*
X13771196Y-15813788D02*
X13761672Y-15794741D01*
X13761672Y-15794741D02*
X13742625Y-15785217D01*
X13742625Y-15785217D02*
X13714053Y-15785217D01*
X13714053Y-15785217D02*
X13695006Y-15775693D01*
X13695006Y-15775693D02*
X13685482Y-15756646D01*
X13685482Y-15756646D02*
X13685482Y-15747122D01*
X13685482Y-15747122D02*
X13695006Y-15728074D01*
X13695006Y-15728074D02*
X13714053Y-15718550D01*
X13714053Y-15718550D02*
X13742625Y-15718550D01*
X13742625Y-15718550D02*
X13761672Y-15728074D01*
X13837863Y-15928074D02*
X13847387Y-15918550D01*
X13847387Y-15918550D02*
X13866434Y-15889979D01*
X13866434Y-15889979D02*
X13875958Y-15870931D01*
X13875958Y-15870931D02*
X13885482Y-15842360D01*
X13885482Y-15842360D02*
X13895006Y-15794741D01*
X13895006Y-15794741D02*
X13895006Y-15756646D01*
X13895006Y-15756646D02*
X13885482Y-15709027D01*
X13885482Y-15709027D02*
X13875958Y-15680455D01*
X13875958Y-15680455D02*
X13866434Y-15661408D01*
X13866434Y-15661408D02*
X13847387Y-15632836D01*
X13847387Y-15632836D02*
X13837863Y-15623312D01*
M02*
