%TF.GenerationSoftware,KiCad,Pcbnew,(6.0.0)*%
%TF.CreationDate,2022-12-04T01:19:58+01:00*%
%TF.ProjectId,Passive Breakout,50617373-6976-4652-9042-7265616b6f75,rev?*%
%TF.SameCoordinates,Original*%
%TF.FileFunction,Copper,L1,Top*%
%TF.FilePolarity,Positive*%
%FSLAX46Y46*%
G04 Gerber Fmt 4.6, Leading zero omitted, Abs format (unit mm)*
G04 Created by KiCad (PCBNEW (6.0.0)) date 2022-12-04 01:19:58*
%MOMM*%
%LPD*%
G01*
G04 APERTURE LIST*
G04 APERTURE END LIST*
%TA.AperFunction,NonConductor*%
G36*
X144634694Y-101745306D02*
G01*
X144653000Y-101789500D01*
X144653000Y-103950500D01*
X144634694Y-103994694D01*
X144590500Y-104013000D01*
X142429500Y-104013000D01*
X142385306Y-103994694D01*
X142367000Y-103950500D01*
X142367000Y-101789500D01*
X142385306Y-101745306D01*
X142429500Y-101727000D01*
X144590500Y-101727000D01*
X144634694Y-101745306D01*
G37*
%TD.AperFunction*%
%TA.AperFunction,NonConductor*%
G36*
X157334694Y-104285306D02*
G01*
X157353000Y-104329500D01*
X157353000Y-106490500D01*
X157334694Y-106534694D01*
X157290500Y-106553000D01*
X155129500Y-106553000D01*
X155085306Y-106534694D01*
X155067000Y-106490500D01*
X155067000Y-104329500D01*
X155085306Y-104285306D01*
X155129500Y-104267000D01*
X157290500Y-104267000D01*
X157334694Y-104285306D01*
G37*
%TD.AperFunction*%
%TA.AperFunction,NonConductor*%
G36*
X149714694Y-96665306D02*
G01*
X149733000Y-96709500D01*
X149733000Y-98870500D01*
X149714694Y-98914694D01*
X149670500Y-98933000D01*
X144969500Y-98933000D01*
X144925306Y-98914694D01*
X144907000Y-98870500D01*
X144907000Y-96709500D01*
X144925306Y-96665306D01*
X144969500Y-96647000D01*
X149670500Y-96647000D01*
X149714694Y-96665306D01*
G37*
%TD.AperFunction*%
%TA.AperFunction,NonConductor*%
G36*
X154794694Y-101745306D02*
G01*
X154813000Y-101789500D01*
X154813000Y-103950500D01*
X154794694Y-103994694D01*
X154750500Y-104013000D01*
X150049500Y-104013000D01*
X150005306Y-103994694D01*
X149987000Y-103950500D01*
X149987000Y-101789500D01*
X150005306Y-101745306D01*
X150049500Y-101727000D01*
X154750500Y-101727000D01*
X154794694Y-101745306D01*
G37*
%TD.AperFunction*%
%TA.AperFunction,NonConductor*%
G36*
X149714694Y-101745306D02*
G01*
X149733000Y-101789500D01*
X149733000Y-103950500D01*
X149714694Y-103994694D01*
X149670500Y-104013000D01*
X144969500Y-104013000D01*
X144925306Y-103994694D01*
X144907000Y-103950500D01*
X144907000Y-101789500D01*
X144925306Y-101745306D01*
X144969500Y-101727000D01*
X149670500Y-101727000D01*
X149714694Y-101745306D01*
G37*
%TD.AperFunction*%
%TA.AperFunction,NonConductor*%
G36*
X157334694Y-99205306D02*
G01*
X157353000Y-99249500D01*
X157353000Y-101410500D01*
X157334694Y-101454694D01*
X157290500Y-101473000D01*
X155129500Y-101473000D01*
X155085306Y-101454694D01*
X155067000Y-101410500D01*
X155067000Y-99249500D01*
X155085306Y-99205306D01*
X155129500Y-99187000D01*
X157290500Y-99187000D01*
X157334694Y-99205306D01*
G37*
%TD.AperFunction*%
%TA.AperFunction,NonConductor*%
G36*
X154794694Y-99205306D02*
G01*
X154813000Y-99249500D01*
X154813000Y-101410500D01*
X154794694Y-101454694D01*
X154750500Y-101473000D01*
X150049500Y-101473000D01*
X150005306Y-101454694D01*
X149987000Y-101410500D01*
X149987000Y-99249500D01*
X150005306Y-99205306D01*
X150049500Y-99187000D01*
X154750500Y-99187000D01*
X154794694Y-99205306D01*
G37*
%TD.AperFunction*%
%TA.AperFunction,NonConductor*%
G36*
X157334694Y-101745306D02*
G01*
X157353000Y-101789500D01*
X157353000Y-103950500D01*
X157334694Y-103994694D01*
X157290500Y-104013000D01*
X155129500Y-104013000D01*
X155085306Y-103994694D01*
X155067000Y-103950500D01*
X155067000Y-101789500D01*
X155085306Y-101745306D01*
X155129500Y-101727000D01*
X157290500Y-101727000D01*
X157334694Y-101745306D01*
G37*
%TD.AperFunction*%
%TA.AperFunction,NonConductor*%
G36*
X144634694Y-96665306D02*
G01*
X144653000Y-96709500D01*
X144653000Y-98870500D01*
X144634694Y-98914694D01*
X144590500Y-98933000D01*
X142429500Y-98933000D01*
X142385306Y-98914694D01*
X142367000Y-98870500D01*
X142367000Y-96709500D01*
X142385306Y-96665306D01*
X142429500Y-96647000D01*
X144590500Y-96647000D01*
X144634694Y-96665306D01*
G37*
%TD.AperFunction*%
%TA.AperFunction,NonConductor*%
G36*
X154794694Y-96665306D02*
G01*
X154813000Y-96709500D01*
X154813000Y-98870500D01*
X154794694Y-98914694D01*
X154750500Y-98933000D01*
X150049500Y-98933000D01*
X150005306Y-98914694D01*
X149987000Y-98870500D01*
X149987000Y-96709500D01*
X150005306Y-96665306D01*
X150049500Y-96647000D01*
X154750500Y-96647000D01*
X154794694Y-96665306D01*
G37*
%TD.AperFunction*%
%TA.AperFunction,NonConductor*%
G36*
X149714694Y-104285306D02*
G01*
X149733000Y-104329500D01*
X149733000Y-106490500D01*
X149714694Y-106534694D01*
X149670500Y-106553000D01*
X144969500Y-106553000D01*
X144925306Y-106534694D01*
X144907000Y-106490500D01*
X144907000Y-104329500D01*
X144925306Y-104285306D01*
X144969500Y-104267000D01*
X149670500Y-104267000D01*
X149714694Y-104285306D01*
G37*
%TD.AperFunction*%
%TA.AperFunction,NonConductor*%
G36*
X154794694Y-104285306D02*
G01*
X154813000Y-104329500D01*
X154813000Y-106490500D01*
X154794694Y-106534694D01*
X154750500Y-106553000D01*
X150049500Y-106553000D01*
X150005306Y-106534694D01*
X149987000Y-106490500D01*
X149987000Y-104329500D01*
X150005306Y-104285306D01*
X150049500Y-104267000D01*
X154750500Y-104267000D01*
X154794694Y-104285306D01*
G37*
%TD.AperFunction*%
%TA.AperFunction,NonConductor*%
G36*
X157334694Y-96665306D02*
G01*
X157353000Y-96709500D01*
X157353000Y-98870500D01*
X157334694Y-98914694D01*
X157290500Y-98933000D01*
X155129500Y-98933000D01*
X155085306Y-98914694D01*
X155067000Y-98870500D01*
X155067000Y-96709500D01*
X155085306Y-96665306D01*
X155129500Y-96647000D01*
X157290500Y-96647000D01*
X157334694Y-96665306D01*
G37*
%TD.AperFunction*%
%TA.AperFunction,NonConductor*%
G36*
X144634694Y-104285306D02*
G01*
X144653000Y-104329500D01*
X144653000Y-106490500D01*
X144634694Y-106534694D01*
X144590500Y-106553000D01*
X142429500Y-106553000D01*
X142385306Y-106534694D01*
X142367000Y-106490500D01*
X142367000Y-104329500D01*
X142385306Y-104285306D01*
X142429500Y-104267000D01*
X144590500Y-104267000D01*
X144634694Y-104285306D01*
G37*
%TD.AperFunction*%
%TA.AperFunction,NonConductor*%
G36*
X144634694Y-99205306D02*
G01*
X144653000Y-99249500D01*
X144653000Y-101410500D01*
X144634694Y-101454694D01*
X144590500Y-101473000D01*
X142429500Y-101473000D01*
X142385306Y-101454694D01*
X142367000Y-101410500D01*
X142367000Y-99249500D01*
X142385306Y-99205306D01*
X142429500Y-99187000D01*
X144590500Y-99187000D01*
X144634694Y-99205306D01*
G37*
%TD.AperFunction*%
%TA.AperFunction,NonConductor*%
G36*
X149714694Y-99205306D02*
G01*
X149733000Y-99249500D01*
X149733000Y-101410500D01*
X149714694Y-101454694D01*
X149670500Y-101473000D01*
X144969500Y-101473000D01*
X144925306Y-101454694D01*
X144907000Y-101410500D01*
X144907000Y-99249500D01*
X144925306Y-99205306D01*
X144969500Y-99187000D01*
X149670500Y-99187000D01*
X149714694Y-99205306D01*
G37*
%TD.AperFunction*%
M02*
