%TF.GenerationSoftware,KiCad,Pcbnew,(6.0.0)*%
%TF.CreationDate,2022-12-04T01:19:58+01:00*%
%TF.ProjectId,Passive Breakout,50617373-6976-4652-9042-7265616b6f75,rev?*%
%TF.SameCoordinates,Original*%
%TF.FileFunction,Legend,Top*%
%TF.FilePolarity,Positive*%
%FSLAX46Y46*%
G04 Gerber Fmt 4.6, Leading zero omitted, Abs format (unit mm)*
G04 Created by KiCad (PCBNEW (6.0.0)) date 2022-12-04 01:19:58*
%MOMM*%
%LPD*%
G01*
G04 APERTURE LIST*
%ADD10C,0.120000*%
G04 APERTURE END LIST*
D10*
%TO.C,REF\u002A\u002A*%
X152780000Y-99213641D02*
X152780000Y-98906359D01*
X152020000Y-99213641D02*
X152020000Y-98906359D01*
X151665000Y-104367064D02*
X151665000Y-103912936D01*
X153135000Y-104367064D02*
X153135000Y-103912936D01*
X145017258Y-98312500D02*
X144542742Y-98312500D01*
X145017258Y-97267500D02*
X144542742Y-97267500D01*
X155093641Y-102490000D02*
X154786359Y-102490000D01*
X155093641Y-103250000D02*
X154786359Y-103250000D01*
X155093641Y-105030000D02*
X154786359Y-105030000D01*
X155093641Y-105790000D02*
X154786359Y-105790000D01*
X150121252Y-101065000D02*
X149598748Y-101065000D01*
X150121252Y-99595000D02*
X149598748Y-99595000D01*
X147830000Y-101459420D02*
X147830000Y-101740580D01*
X146810000Y-101459420D02*
X146810000Y-101740580D01*
X149967836Y-105770000D02*
X149752164Y-105770000D01*
X149967836Y-105050000D02*
X149752164Y-105050000D01*
X145017258Y-100852500D02*
X144542742Y-100852500D01*
X145017258Y-99807500D02*
X144542742Y-99807500D01*
X145017258Y-105932500D02*
X144542742Y-105932500D01*
X145017258Y-104887500D02*
X144542742Y-104887500D01*
X148055000Y-103878748D02*
X148055000Y-104401252D01*
X146585000Y-103878748D02*
X146585000Y-104401252D01*
X150571252Y-96880000D02*
X149148748Y-96880000D01*
X150571252Y-98700000D02*
X149148748Y-98700000D01*
X155093641Y-99950000D02*
X154786359Y-99950000D01*
X155093641Y-100710000D02*
X154786359Y-100710000D01*
X145017258Y-103392500D02*
X144542742Y-103392500D01*
X145017258Y-102347500D02*
X144542742Y-102347500D01*
X147680000Y-98952164D02*
X147680000Y-99167836D01*
X146960000Y-98952164D02*
X146960000Y-99167836D01*
X150000580Y-103380000D02*
X149719420Y-103380000D01*
X150000580Y-102360000D02*
X149719420Y-102360000D01*
X155093641Y-97410000D02*
X154786359Y-97410000D01*
X155093641Y-98170000D02*
X154786359Y-98170000D01*
X151877500Y-101837258D02*
X151877500Y-101362742D01*
X152922500Y-101837258D02*
X152922500Y-101362742D01*
%TD*%
M02*
