%TF.GenerationSoftware,KiCad,Pcbnew,(7.0.0)*%
%TF.CreationDate,2023-05-24T19:24:20+02:00*%
%TF.ProjectId,SOT23-6,534f5432-332d-4362-9e6b-696361645f70,rev?*%
%TF.SameCoordinates,Original*%
%TF.FileFunction,Copper,L1,Top*%
%TF.FilePolarity,Positive*%
%FSLAX46Y46*%
G04 Gerber Fmt 4.6, Leading zero omitted, Abs format (unit mm)*
G04 Created by KiCad (PCBNEW (7.0.0)) date 2023-05-24 19:24:20*
%MOMM*%
%LPD*%
G01*
G04 APERTURE LIST*
G04 APERTURE END LIST*
%TA.AperFunction,NonConductor*%
G36*
X159830000Y-100473881D02*
G01*
X159876119Y-100520000D01*
X159893000Y-100583000D01*
X159893000Y-102617000D01*
X159876119Y-102680000D01*
X159830000Y-102726119D01*
X159767000Y-102743000D01*
X157733000Y-102743000D01*
X157670000Y-102726119D01*
X157623881Y-102680000D01*
X157607000Y-102617000D01*
X157607000Y-100583000D01*
X157623881Y-100520000D01*
X157670000Y-100473881D01*
X157733000Y-100457000D01*
X159767000Y-100457000D01*
X159830000Y-100473881D01*
G37*
%TD.AperFunction*%
%TA.AperFunction,NonConductor*%
G36*
X159830000Y-97933881D02*
G01*
X159876119Y-97980000D01*
X159893000Y-98043000D01*
X159893000Y-100077000D01*
X159876119Y-100140000D01*
X159830000Y-100186119D01*
X159767000Y-100203000D01*
X157733000Y-100203000D01*
X157670000Y-100186119D01*
X157623881Y-100140000D01*
X157607000Y-100077000D01*
X157607000Y-98043000D01*
X157623881Y-97980000D01*
X157670000Y-97933881D01*
X157733000Y-97917000D01*
X159767000Y-97917000D01*
X159830000Y-97933881D01*
G37*
%TD.AperFunction*%
%TA.AperFunction,NonConductor*%
G36*
X159830000Y-103013881D02*
G01*
X159876119Y-103060000D01*
X159893000Y-103123000D01*
X159893000Y-105157000D01*
X159876119Y-105220000D01*
X159830000Y-105266119D01*
X159767000Y-105283000D01*
X157733000Y-105283000D01*
X157670000Y-105266119D01*
X157623881Y-105220000D01*
X157607000Y-105157000D01*
X157607000Y-103123000D01*
X157623881Y-103060000D01*
X157670000Y-103013881D01*
X157733000Y-102997000D01*
X159767000Y-102997000D01*
X159830000Y-103013881D01*
G37*
%TD.AperFunction*%
%TA.AperFunction,NonConductor*%
G36*
X149670000Y-100473881D02*
G01*
X149716119Y-100520000D01*
X149733000Y-100583000D01*
X149733000Y-101219000D01*
X151766000Y-101219000D01*
X151829000Y-101235881D01*
X151875119Y-101282000D01*
X151892000Y-101345000D01*
X151892000Y-101855000D01*
X151875119Y-101918000D01*
X151829000Y-101964119D01*
X151766000Y-101981000D01*
X149733000Y-101981000D01*
X149733000Y-101997590D01*
X149733000Y-102617000D01*
X149716119Y-102680000D01*
X149670000Y-102726119D01*
X149607000Y-102743000D01*
X147573000Y-102743000D01*
X147510000Y-102726119D01*
X147463881Y-102680000D01*
X147447000Y-102617000D01*
X147447000Y-100583000D01*
X147463881Y-100520000D01*
X147510000Y-100473881D01*
X147573000Y-100457000D01*
X149607000Y-100457000D01*
X149670000Y-100473881D01*
G37*
%TD.AperFunction*%
%TA.AperFunction,NonConductor*%
G36*
X151829000Y-102251881D02*
G01*
X151875119Y-102298000D01*
X151892000Y-102361000D01*
X151892000Y-102744000D01*
X151875119Y-102807000D01*
X151829000Y-102853119D01*
X151766000Y-102870000D01*
X151003000Y-102870000D01*
X151003000Y-102886590D01*
X151003000Y-105157000D01*
X150986119Y-105220000D01*
X150940000Y-105266119D01*
X150877000Y-105283000D01*
X147573000Y-105283000D01*
X147510000Y-105266119D01*
X147463881Y-105220000D01*
X147447000Y-105157000D01*
X147447000Y-103123000D01*
X147463881Y-103060000D01*
X147510000Y-103013881D01*
X147573000Y-102997000D01*
X149970410Y-102997000D01*
X149987000Y-102997000D01*
X149987000Y-102361000D01*
X150003881Y-102298000D01*
X150050000Y-102251881D01*
X150113000Y-102235000D01*
X151766000Y-102235000D01*
X151829000Y-102251881D01*
G37*
%TD.AperFunction*%
%TA.AperFunction,NonConductor*%
G36*
X147130000Y-103013881D02*
G01*
X147176119Y-103060000D01*
X147193000Y-103123000D01*
X147193000Y-105157000D01*
X147176119Y-105220000D01*
X147130000Y-105266119D01*
X147067000Y-105283000D01*
X145033000Y-105283000D01*
X144970000Y-105266119D01*
X144923881Y-105220000D01*
X144907000Y-105157000D01*
X144907000Y-103123000D01*
X144923881Y-103060000D01*
X144970000Y-103013881D01*
X145033000Y-102997000D01*
X147067000Y-102997000D01*
X147130000Y-103013881D01*
G37*
%TD.AperFunction*%
%TA.AperFunction,NonConductor*%
G36*
X150940000Y-97933881D02*
G01*
X150986119Y-97980000D01*
X151003000Y-98043000D01*
X151003000Y-100330000D01*
X151766000Y-100330000D01*
X151829000Y-100346881D01*
X151875119Y-100393000D01*
X151892000Y-100456000D01*
X151892000Y-100839000D01*
X151875119Y-100902000D01*
X151829000Y-100948119D01*
X151766000Y-100965000D01*
X150113000Y-100965000D01*
X150050000Y-100948119D01*
X150003881Y-100902000D01*
X149987000Y-100839000D01*
X149987000Y-100219590D01*
X149987000Y-100203000D01*
X149970410Y-100203000D01*
X147573000Y-100203000D01*
X147510000Y-100186119D01*
X147463881Y-100140000D01*
X147447000Y-100077000D01*
X147447000Y-98043000D01*
X147463881Y-97980000D01*
X147510000Y-97933881D01*
X147573000Y-97917000D01*
X150877000Y-97917000D01*
X150940000Y-97933881D01*
G37*
%TD.AperFunction*%
%TA.AperFunction,NonConductor*%
G36*
X147130000Y-97933881D02*
G01*
X147176119Y-97980000D01*
X147193000Y-98043000D01*
X147193000Y-100077000D01*
X147176119Y-100140000D01*
X147130000Y-100186119D01*
X147067000Y-100203000D01*
X145033000Y-100203000D01*
X144970000Y-100186119D01*
X144923881Y-100140000D01*
X144907000Y-100077000D01*
X144907000Y-98043000D01*
X144923881Y-97980000D01*
X144970000Y-97933881D01*
X145033000Y-97917000D01*
X147067000Y-97917000D01*
X147130000Y-97933881D01*
G37*
%TD.AperFunction*%
%TA.AperFunction,NonConductor*%
G36*
X147130000Y-100473881D02*
G01*
X147176119Y-100520000D01*
X147193000Y-100583000D01*
X147193000Y-102617000D01*
X147176119Y-102680000D01*
X147130000Y-102726119D01*
X147067000Y-102743000D01*
X145033000Y-102743000D01*
X144970000Y-102726119D01*
X144923881Y-102680000D01*
X144907000Y-102617000D01*
X144907000Y-100583000D01*
X144923881Y-100520000D01*
X144970000Y-100473881D01*
X145033000Y-100457000D01*
X147067000Y-100457000D01*
X147130000Y-100473881D01*
G37*
%TD.AperFunction*%
%TA.AperFunction,NonConductor*%
G36*
X154750000Y-102251881D02*
G01*
X154796119Y-102298000D01*
X154813000Y-102361000D01*
X154813000Y-102997000D01*
X157227000Y-102997000D01*
X157290000Y-103013881D01*
X157336119Y-103060000D01*
X157353000Y-103123000D01*
X157353000Y-105157000D01*
X157336119Y-105220000D01*
X157290000Y-105266119D01*
X157227000Y-105283000D01*
X153923000Y-105283000D01*
X153860000Y-105266119D01*
X153813881Y-105220000D01*
X153797000Y-105157000D01*
X153797000Y-102886590D01*
X153797000Y-102870000D01*
X153780410Y-102870000D01*
X153034000Y-102870000D01*
X152971000Y-102853119D01*
X152924881Y-102807000D01*
X152908000Y-102744000D01*
X152908000Y-102361000D01*
X152924881Y-102298000D01*
X152971000Y-102251881D01*
X153034000Y-102235000D01*
X154687000Y-102235000D01*
X154750000Y-102251881D01*
G37*
%TD.AperFunction*%
%TA.AperFunction,NonConductor*%
G36*
X157290000Y-97933881D02*
G01*
X157336119Y-97980000D01*
X157353000Y-98043000D01*
X157353000Y-100077000D01*
X157336119Y-100140000D01*
X157290000Y-100186119D01*
X157227000Y-100203000D01*
X154813000Y-100203000D01*
X154813000Y-100219590D01*
X154813000Y-100839000D01*
X154796119Y-100902000D01*
X154750000Y-100948119D01*
X154687000Y-100965000D01*
X153034000Y-100965000D01*
X152971000Y-100948119D01*
X152924881Y-100902000D01*
X152908000Y-100839000D01*
X152908000Y-100456000D01*
X152924881Y-100393000D01*
X152971000Y-100346881D01*
X153034000Y-100330000D01*
X153780410Y-100330000D01*
X153797000Y-100330000D01*
X153797000Y-98043000D01*
X153813881Y-97980000D01*
X153860000Y-97933881D01*
X153923000Y-97917000D01*
X157227000Y-97917000D01*
X157290000Y-97933881D01*
G37*
%TD.AperFunction*%
%TA.AperFunction,NonConductor*%
G36*
X157290000Y-100473881D02*
G01*
X157336119Y-100520000D01*
X157353000Y-100583000D01*
X157353000Y-102617000D01*
X157336119Y-102680000D01*
X157290000Y-102726119D01*
X157227000Y-102743000D01*
X155193000Y-102743000D01*
X155130000Y-102726119D01*
X155083881Y-102680000D01*
X155067000Y-102617000D01*
X155067000Y-101997590D01*
X155067000Y-101981000D01*
X155050410Y-101981000D01*
X153034000Y-101981000D01*
X152971000Y-101964119D01*
X152924881Y-101918000D01*
X152908000Y-101855000D01*
X152908000Y-101345000D01*
X152924881Y-101282000D01*
X152971000Y-101235881D01*
X153034000Y-101219000D01*
X155050410Y-101219000D01*
X155067000Y-101219000D01*
X155067000Y-100583000D01*
X155083881Y-100520000D01*
X155130000Y-100473881D01*
X155193000Y-100457000D01*
X157227000Y-100457000D01*
X157290000Y-100473881D01*
G37*
%TD.AperFunction*%
%TA.AperFunction,NonConductor*%
G36*
X153480000Y-97933881D02*
G01*
X153526119Y-97980000D01*
X153543000Y-98043000D01*
X153543000Y-99950000D01*
X153526119Y-100013000D01*
X153480000Y-100059119D01*
X153417000Y-100076000D01*
X152654000Y-100076000D01*
X152654000Y-103124000D01*
X153417000Y-103124000D01*
X153480000Y-103140881D01*
X153526119Y-103187000D01*
X153543000Y-103250000D01*
X153543000Y-105157000D01*
X153526119Y-105220000D01*
X153480000Y-105266119D01*
X153417000Y-105283000D01*
X151383000Y-105283000D01*
X151320000Y-105266119D01*
X151273881Y-105220000D01*
X151257000Y-105157000D01*
X151257000Y-103250000D01*
X151273881Y-103187000D01*
X151320000Y-103140881D01*
X151383000Y-103124000D01*
X152129410Y-103124000D01*
X152146000Y-103124000D01*
X152146000Y-100076000D01*
X152129410Y-100076000D01*
X151383000Y-100076000D01*
X151320000Y-100059119D01*
X151273881Y-100013000D01*
X151257000Y-99950000D01*
X151257000Y-98043000D01*
X151273881Y-97980000D01*
X151320000Y-97933881D01*
X151383000Y-97917000D01*
X153417000Y-97917000D01*
X153480000Y-97933881D01*
G37*
%TD.AperFunction*%
M02*
