%TF.GenerationSoftware,KiCad,Pcbnew,(6.0.10)*%
%TF.CreationDate,2023-01-04T22:27:33+01:00*%
%TF.ProjectId,SOIC-20 Breakout,534f4943-2d32-4302-9042-7265616b6f75,rev?*%
%TF.SameCoordinates,Original*%
%TF.FileFunction,Copper,L1,Top*%
%TF.FilePolarity,Positive*%
%FSLAX46Y46*%
G04 Gerber Fmt 4.6, Leading zero omitted, Abs format (unit mm)*
G04 Created by KiCad (PCBNEW (6.0.10)) date 2023-01-04 22:27:33*
%MOMM*%
%LPD*%
G01*
G04 APERTURE LIST*
G04 APERTURE END LIST*
%TA.AperFunction,NonConductor*%
G36*
X160509694Y-91585306D02*
G01*
X160528000Y-91629500D01*
X160528000Y-93790500D01*
X160509694Y-93834694D01*
X160465500Y-93853000D01*
X156083000Y-93853000D01*
X156083000Y-97600500D01*
X156064694Y-97644694D01*
X156020500Y-97663000D01*
X153859500Y-97663000D01*
X153815306Y-97644694D01*
X153797000Y-97600500D01*
X153797000Y-96709500D01*
X153815306Y-96665306D01*
X153859500Y-96647000D01*
X155702000Y-96647000D01*
X155702000Y-91629500D01*
X155720306Y-91585306D01*
X155764500Y-91567000D01*
X160465500Y-91567000D01*
X160509694Y-91585306D01*
G37*
%TD.AperFunction*%
%TA.AperFunction,NonConductor*%
G36*
X163010121Y-91587002D02*
G01*
X163056614Y-91640658D01*
X163068000Y-91693000D01*
X163068000Y-93727000D01*
X163047998Y-93795121D01*
X162994342Y-93841614D01*
X162942000Y-93853000D01*
X160908000Y-93853000D01*
X160839879Y-93832998D01*
X160793386Y-93779342D01*
X160782000Y-93727000D01*
X160782000Y-91693000D01*
X160802002Y-91624879D01*
X160855658Y-91578386D01*
X160908000Y-91567000D01*
X162942000Y-91567000D01*
X163010121Y-91587002D01*
G37*
%TD.AperFunction*%
%TA.AperFunction,NonConductor*%
G36*
X143960121Y-94127002D02*
G01*
X144006614Y-94180658D01*
X144018000Y-94233000D01*
X144018000Y-96267000D01*
X143997998Y-96335121D01*
X143944342Y-96381614D01*
X143892000Y-96393000D01*
X141858000Y-96393000D01*
X141789879Y-96372998D01*
X141743386Y-96319342D01*
X141732000Y-96267000D01*
X141732000Y-94233000D01*
X141752002Y-94164879D01*
X141805658Y-94118386D01*
X141858000Y-94107000D01*
X143892000Y-94107000D01*
X143960121Y-94127002D01*
G37*
%TD.AperFunction*%
%TA.AperFunction,NonConductor*%
G36*
X143960121Y-104287002D02*
G01*
X144006614Y-104340658D01*
X144018000Y-104393000D01*
X144018000Y-106427000D01*
X143997998Y-106495121D01*
X143944342Y-106541614D01*
X143892000Y-106553000D01*
X141858000Y-106553000D01*
X141789879Y-106532998D01*
X141743386Y-106479342D01*
X141732000Y-106427000D01*
X141732000Y-104393000D01*
X141752002Y-104324879D01*
X141805658Y-104278386D01*
X141858000Y-104267000D01*
X143892000Y-104267000D01*
X143960121Y-104287002D01*
G37*
%TD.AperFunction*%
%TA.AperFunction,NonConductor*%
G36*
X160509694Y-96665306D02*
G01*
X160528000Y-96709500D01*
X160528000Y-98870500D01*
X160509694Y-98914694D01*
X160465500Y-98933000D01*
X157353000Y-98933000D01*
X157353000Y-100140500D01*
X157334694Y-100184694D01*
X157290500Y-100203000D01*
X153859500Y-100203000D01*
X153815306Y-100184694D01*
X153797000Y-100140500D01*
X153797000Y-99249500D01*
X153815306Y-99205306D01*
X153859500Y-99187000D01*
X156972000Y-99187000D01*
X156972000Y-96709500D01*
X156990306Y-96665306D01*
X157034500Y-96647000D01*
X160465500Y-96647000D01*
X160509694Y-96665306D01*
G37*
%TD.AperFunction*%
%TA.AperFunction,NonConductor*%
G36*
X157334694Y-103015306D02*
G01*
X157353000Y-103059500D01*
X157353000Y-104267000D01*
X160465500Y-104267000D01*
X160509694Y-104285306D01*
X160528000Y-104329500D01*
X160528000Y-106490500D01*
X160509694Y-106534694D01*
X160465500Y-106553000D01*
X157034500Y-106553000D01*
X156990306Y-106534694D01*
X156972000Y-106490500D01*
X156972000Y-104013000D01*
X153859500Y-104013000D01*
X153815306Y-103994694D01*
X153797000Y-103950500D01*
X153797000Y-103059500D01*
X153815306Y-103015306D01*
X153859500Y-102997000D01*
X157290500Y-102997000D01*
X157334694Y-103015306D01*
G37*
%TD.AperFunction*%
%TA.AperFunction,NonConductor*%
G36*
X163010121Y-89047002D02*
G01*
X163056614Y-89100658D01*
X163068000Y-89153000D01*
X163068000Y-91187000D01*
X163047998Y-91255121D01*
X162994342Y-91301614D01*
X162942000Y-91313000D01*
X155448000Y-91313000D01*
X155448000Y-96267000D01*
X155427998Y-96335121D01*
X155374342Y-96381614D01*
X155322000Y-96393000D01*
X153543000Y-96393000D01*
X153543000Y-106807000D01*
X155322000Y-106807000D01*
X155390121Y-106827002D01*
X155436614Y-106880658D01*
X155448000Y-106933000D01*
X155448000Y-111887000D01*
X162942000Y-111887000D01*
X163010121Y-111907002D01*
X163056614Y-111960658D01*
X163068000Y-112013000D01*
X163068000Y-114047000D01*
X163047998Y-114115121D01*
X162994342Y-114161614D01*
X162942000Y-114173000D01*
X141858000Y-114173000D01*
X141789879Y-114152998D01*
X141743386Y-114099342D01*
X141732000Y-114047000D01*
X141732000Y-112013000D01*
X141752002Y-111944879D01*
X141805658Y-111898386D01*
X141858000Y-111887000D01*
X149352000Y-111887000D01*
X149352000Y-106933000D01*
X149372002Y-106864879D01*
X149425658Y-106818386D01*
X149478000Y-106807000D01*
X151257000Y-106807000D01*
X151257000Y-96393000D01*
X149478000Y-96393000D01*
X149409879Y-96372998D01*
X149363386Y-96319342D01*
X149352000Y-96267000D01*
X149352000Y-91313000D01*
X141858000Y-91313000D01*
X141789879Y-91292998D01*
X141743386Y-91239342D01*
X141732000Y-91187000D01*
X141732000Y-89153000D01*
X141752002Y-89084879D01*
X141805658Y-89038386D01*
X141858000Y-89027000D01*
X162942000Y-89027000D01*
X163010121Y-89047002D01*
G37*
%TD.AperFunction*%
%TA.AperFunction,NonConductor*%
G36*
X163010121Y-94127002D02*
G01*
X163056614Y-94180658D01*
X163068000Y-94233000D01*
X163068000Y-96267000D01*
X163047998Y-96335121D01*
X162994342Y-96381614D01*
X162942000Y-96393000D01*
X160908000Y-96393000D01*
X160839879Y-96372998D01*
X160793386Y-96319342D01*
X160782000Y-96267000D01*
X160782000Y-94233000D01*
X160802002Y-94164879D01*
X160855658Y-94118386D01*
X160908000Y-94107000D01*
X162942000Y-94107000D01*
X163010121Y-94127002D01*
G37*
%TD.AperFunction*%
%TA.AperFunction,NonConductor*%
G36*
X143960121Y-106827002D02*
G01*
X144006614Y-106880658D01*
X144018000Y-106933000D01*
X144018000Y-108967000D01*
X143997998Y-109035121D01*
X143944342Y-109081614D01*
X143892000Y-109093000D01*
X141858000Y-109093000D01*
X141789879Y-109072998D01*
X141743386Y-109019342D01*
X141732000Y-108967000D01*
X141732000Y-106933000D01*
X141752002Y-106864879D01*
X141805658Y-106818386D01*
X141858000Y-106807000D01*
X143892000Y-106807000D01*
X143960121Y-106827002D01*
G37*
%TD.AperFunction*%
%TA.AperFunction,NonConductor*%
G36*
X163010121Y-104287002D02*
G01*
X163056614Y-104340658D01*
X163068000Y-104393000D01*
X163068000Y-106427000D01*
X163047998Y-106495121D01*
X162994342Y-106541614D01*
X162942000Y-106553000D01*
X160908000Y-106553000D01*
X160839879Y-106532998D01*
X160793386Y-106479342D01*
X160782000Y-106427000D01*
X160782000Y-104393000D01*
X160802002Y-104324879D01*
X160855658Y-104278386D01*
X160908000Y-104267000D01*
X162942000Y-104267000D01*
X163010121Y-104287002D01*
G37*
%TD.AperFunction*%
%TA.AperFunction,NonConductor*%
G36*
X156699694Y-104285306D02*
G01*
X156718000Y-104329500D01*
X156718000Y-106807000D01*
X160465500Y-106807000D01*
X160509694Y-106825306D01*
X160528000Y-106869500D01*
X160528000Y-109030500D01*
X160509694Y-109074694D01*
X160465500Y-109093000D01*
X156399500Y-109093000D01*
X156355306Y-109074694D01*
X156337000Y-109030500D01*
X156337000Y-105283000D01*
X153859500Y-105283000D01*
X153815306Y-105264694D01*
X153797000Y-105220500D01*
X153797000Y-104329500D01*
X153815306Y-104285306D01*
X153859500Y-104267000D01*
X156655500Y-104267000D01*
X156699694Y-104285306D01*
G37*
%TD.AperFunction*%
%TA.AperFunction,NonConductor*%
G36*
X163010121Y-106827002D02*
G01*
X163056614Y-106880658D01*
X163068000Y-106933000D01*
X163068000Y-108967000D01*
X163047998Y-109035121D01*
X162994342Y-109081614D01*
X162942000Y-109093000D01*
X160908000Y-109093000D01*
X160839879Y-109072998D01*
X160793386Y-109019342D01*
X160782000Y-108967000D01*
X160782000Y-106933000D01*
X160802002Y-106864879D01*
X160855658Y-106818386D01*
X160908000Y-106807000D01*
X162942000Y-106807000D01*
X163010121Y-106827002D01*
G37*
%TD.AperFunction*%
%TA.AperFunction,NonConductor*%
G36*
X143960121Y-101747002D02*
G01*
X144006614Y-101800658D01*
X144018000Y-101853000D01*
X144018000Y-103887000D01*
X143997998Y-103955121D01*
X143944342Y-104001614D01*
X143892000Y-104013000D01*
X141858000Y-104013000D01*
X141789879Y-103992998D01*
X141743386Y-103939342D01*
X141732000Y-103887000D01*
X141732000Y-101853000D01*
X141752002Y-101784879D01*
X141805658Y-101738386D01*
X141858000Y-101727000D01*
X143892000Y-101727000D01*
X143960121Y-101747002D01*
G37*
%TD.AperFunction*%
%TA.AperFunction,NonConductor*%
G36*
X156064694Y-105555306D02*
G01*
X156083000Y-105599500D01*
X156083000Y-109347000D01*
X160465500Y-109347000D01*
X160509694Y-109365306D01*
X160528000Y-109409500D01*
X160528000Y-111570500D01*
X160509694Y-111614694D01*
X160465500Y-111633000D01*
X155764500Y-111633000D01*
X155720306Y-111614694D01*
X155702000Y-111570500D01*
X155702000Y-106553000D01*
X153859500Y-106553000D01*
X153815306Y-106534694D01*
X153797000Y-106490500D01*
X153797000Y-105599500D01*
X153815306Y-105555306D01*
X153859500Y-105537000D01*
X156020500Y-105537000D01*
X156064694Y-105555306D01*
G37*
%TD.AperFunction*%
%TA.AperFunction,NonConductor*%
G36*
X148444694Y-94125306D02*
G01*
X148463000Y-94169500D01*
X148463000Y-97917000D01*
X150940500Y-97917000D01*
X150984694Y-97935306D01*
X151003000Y-97979500D01*
X151003000Y-98870500D01*
X150984694Y-98914694D01*
X150940500Y-98933000D01*
X148144500Y-98933000D01*
X148100306Y-98914694D01*
X148082000Y-98870500D01*
X148082000Y-96393000D01*
X144334500Y-96393000D01*
X144290306Y-96374694D01*
X144272000Y-96330500D01*
X144272000Y-94169500D01*
X144290306Y-94125306D01*
X144334500Y-94107000D01*
X148400500Y-94107000D01*
X148444694Y-94125306D01*
G37*
%TD.AperFunction*%
%TA.AperFunction,NonConductor*%
G36*
X163010121Y-109367002D02*
G01*
X163056614Y-109420658D01*
X163068000Y-109473000D01*
X163068000Y-111507000D01*
X163047998Y-111575121D01*
X162994342Y-111621614D01*
X162942000Y-111633000D01*
X160908000Y-111633000D01*
X160839879Y-111612998D01*
X160793386Y-111559342D01*
X160782000Y-111507000D01*
X160782000Y-109473000D01*
X160802002Y-109404879D01*
X160855658Y-109358386D01*
X160908000Y-109347000D01*
X162942000Y-109347000D01*
X163010121Y-109367002D01*
G37*
%TD.AperFunction*%
%TA.AperFunction,NonConductor*%
G36*
X150984694Y-101745306D02*
G01*
X151003000Y-101789500D01*
X151003000Y-102680500D01*
X150984694Y-102724694D01*
X150940500Y-102743000D01*
X147193000Y-102743000D01*
X147193000Y-103950500D01*
X147174694Y-103994694D01*
X147130500Y-104013000D01*
X144334500Y-104013000D01*
X144290306Y-103994694D01*
X144272000Y-103950500D01*
X144272000Y-101789500D01*
X144290306Y-101745306D01*
X144334500Y-101727000D01*
X150940500Y-101727000D01*
X150984694Y-101745306D01*
G37*
%TD.AperFunction*%
%TA.AperFunction,NonConductor*%
G36*
X163010121Y-99207002D02*
G01*
X163056614Y-99260658D01*
X163068000Y-99313000D01*
X163068000Y-101347000D01*
X163047998Y-101415121D01*
X162994342Y-101461614D01*
X162942000Y-101473000D01*
X160908000Y-101473000D01*
X160839879Y-101452998D01*
X160793386Y-101399342D01*
X160782000Y-101347000D01*
X160782000Y-99313000D01*
X160802002Y-99244879D01*
X160855658Y-99198386D01*
X160908000Y-99187000D01*
X162942000Y-99187000D01*
X163010121Y-99207002D01*
G37*
%TD.AperFunction*%
%TA.AperFunction,NonConductor*%
G36*
X160509694Y-99205306D02*
G01*
X160528000Y-99249500D01*
X160528000Y-101410500D01*
X160509694Y-101454694D01*
X160465500Y-101473000D01*
X153859500Y-101473000D01*
X153815306Y-101454694D01*
X153797000Y-101410500D01*
X153797000Y-100519500D01*
X153815306Y-100475306D01*
X153859500Y-100457000D01*
X157607000Y-100457000D01*
X157607000Y-99249500D01*
X157625306Y-99205306D01*
X157669500Y-99187000D01*
X160465500Y-99187000D01*
X160509694Y-99205306D01*
G37*
%TD.AperFunction*%
%TA.AperFunction,NonConductor*%
G36*
X149079694Y-91585306D02*
G01*
X149098000Y-91629500D01*
X149098000Y-96647000D01*
X150940500Y-96647000D01*
X150984694Y-96665306D01*
X151003000Y-96709500D01*
X151003000Y-97600500D01*
X150984694Y-97644694D01*
X150940500Y-97663000D01*
X148779500Y-97663000D01*
X148735306Y-97644694D01*
X148717000Y-97600500D01*
X148717000Y-93853000D01*
X144334500Y-93853000D01*
X144290306Y-93834694D01*
X144272000Y-93790500D01*
X144272000Y-91629500D01*
X144290306Y-91585306D01*
X144334500Y-91567000D01*
X149035500Y-91567000D01*
X149079694Y-91585306D01*
G37*
%TD.AperFunction*%
%TA.AperFunction,NonConductor*%
G36*
X150984694Y-105555306D02*
G01*
X151003000Y-105599500D01*
X151003000Y-106490500D01*
X150984694Y-106534694D01*
X150940500Y-106553000D01*
X149098000Y-106553000D01*
X149098000Y-111570500D01*
X149079694Y-111614694D01*
X149035500Y-111633000D01*
X144334500Y-111633000D01*
X144290306Y-111614694D01*
X144272000Y-111570500D01*
X144272000Y-109409500D01*
X144290306Y-109365306D01*
X144334500Y-109347000D01*
X148717000Y-109347000D01*
X148717000Y-105599500D01*
X148735306Y-105555306D01*
X148779500Y-105537000D01*
X150940500Y-105537000D01*
X150984694Y-105555306D01*
G37*
%TD.AperFunction*%
%TA.AperFunction,NonConductor*%
G36*
X160509694Y-94125306D02*
G01*
X160528000Y-94169500D01*
X160528000Y-96330500D01*
X160509694Y-96374694D01*
X160465500Y-96393000D01*
X156718000Y-96393000D01*
X156718000Y-98870500D01*
X156699694Y-98914694D01*
X156655500Y-98933000D01*
X153859500Y-98933000D01*
X153815306Y-98914694D01*
X153797000Y-98870500D01*
X153797000Y-97979500D01*
X153815306Y-97935306D01*
X153859500Y-97917000D01*
X156337000Y-97917000D01*
X156337000Y-94169500D01*
X156355306Y-94125306D01*
X156399500Y-94107000D01*
X160465500Y-94107000D01*
X160509694Y-94125306D01*
G37*
%TD.AperFunction*%
%TA.AperFunction,NonConductor*%
G36*
X143960121Y-99207002D02*
G01*
X144006614Y-99260658D01*
X144018000Y-99313000D01*
X144018000Y-101347000D01*
X143997998Y-101415121D01*
X143944342Y-101461614D01*
X143892000Y-101473000D01*
X141858000Y-101473000D01*
X141789879Y-101452998D01*
X141743386Y-101399342D01*
X141732000Y-101347000D01*
X141732000Y-99313000D01*
X141752002Y-99244879D01*
X141805658Y-99198386D01*
X141858000Y-99187000D01*
X143892000Y-99187000D01*
X143960121Y-99207002D01*
G37*
%TD.AperFunction*%
%TA.AperFunction,NonConductor*%
G36*
X163010121Y-101747002D02*
G01*
X163056614Y-101800658D01*
X163068000Y-101853000D01*
X163068000Y-103887000D01*
X163047998Y-103955121D01*
X162994342Y-104001614D01*
X162942000Y-104013000D01*
X160908000Y-104013000D01*
X160839879Y-103992998D01*
X160793386Y-103939342D01*
X160782000Y-103887000D01*
X160782000Y-101853000D01*
X160802002Y-101784879D01*
X160855658Y-101738386D01*
X160908000Y-101727000D01*
X162942000Y-101727000D01*
X163010121Y-101747002D01*
G37*
%TD.AperFunction*%
%TA.AperFunction,NonConductor*%
G36*
X160509694Y-101745306D02*
G01*
X160528000Y-101789500D01*
X160528000Y-103950500D01*
X160509694Y-103994694D01*
X160465500Y-104013000D01*
X157669500Y-104013000D01*
X157625306Y-103994694D01*
X157607000Y-103950500D01*
X157607000Y-102743000D01*
X153859500Y-102743000D01*
X153815306Y-102724694D01*
X153797000Y-102680500D01*
X153797000Y-101789500D01*
X153815306Y-101745306D01*
X153859500Y-101727000D01*
X160465500Y-101727000D01*
X160509694Y-101745306D01*
G37*
%TD.AperFunction*%
%TA.AperFunction,NonConductor*%
G36*
X163010121Y-96667002D02*
G01*
X163056614Y-96720658D01*
X163068000Y-96773000D01*
X163068000Y-98807000D01*
X163047998Y-98875121D01*
X162994342Y-98921614D01*
X162942000Y-98933000D01*
X160908000Y-98933000D01*
X160839879Y-98912998D01*
X160793386Y-98859342D01*
X160782000Y-98807000D01*
X160782000Y-96773000D01*
X160802002Y-96704879D01*
X160855658Y-96658386D01*
X160908000Y-96647000D01*
X162942000Y-96647000D01*
X163010121Y-96667002D01*
G37*
%TD.AperFunction*%
%TA.AperFunction,NonConductor*%
G36*
X143960121Y-109367002D02*
G01*
X144006614Y-109420658D01*
X144018000Y-109473000D01*
X144018000Y-111507000D01*
X143997998Y-111575121D01*
X143944342Y-111621614D01*
X143892000Y-111633000D01*
X141858000Y-111633000D01*
X141789879Y-111612998D01*
X141743386Y-111559342D01*
X141732000Y-111507000D01*
X141732000Y-109473000D01*
X141752002Y-109404879D01*
X141805658Y-109358386D01*
X141858000Y-109347000D01*
X143892000Y-109347000D01*
X143960121Y-109367002D01*
G37*
%TD.AperFunction*%
%TA.AperFunction,NonConductor*%
G36*
X147809694Y-96665306D02*
G01*
X147828000Y-96709500D01*
X147828000Y-99187000D01*
X150940500Y-99187000D01*
X150984694Y-99205306D01*
X151003000Y-99249500D01*
X151003000Y-100140500D01*
X150984694Y-100184694D01*
X150940500Y-100203000D01*
X147509500Y-100203000D01*
X147465306Y-100184694D01*
X147447000Y-100140500D01*
X147447000Y-98933000D01*
X144334500Y-98933000D01*
X144290306Y-98914694D01*
X144272000Y-98870500D01*
X144272000Y-96709500D01*
X144290306Y-96665306D01*
X144334500Y-96647000D01*
X147765500Y-96647000D01*
X147809694Y-96665306D01*
G37*
%TD.AperFunction*%
%TA.AperFunction,NonConductor*%
G36*
X143960121Y-91587002D02*
G01*
X144006614Y-91640658D01*
X144018000Y-91693000D01*
X144018000Y-93727000D01*
X143997998Y-93795121D01*
X143944342Y-93841614D01*
X143892000Y-93853000D01*
X141858000Y-93853000D01*
X141789879Y-93832998D01*
X141743386Y-93779342D01*
X141732000Y-93727000D01*
X141732000Y-91693000D01*
X141752002Y-91624879D01*
X141805658Y-91578386D01*
X141858000Y-91567000D01*
X143892000Y-91567000D01*
X143960121Y-91587002D01*
G37*
%TD.AperFunction*%
%TA.AperFunction,NonConductor*%
G36*
X143960121Y-96667002D02*
G01*
X144006614Y-96720658D01*
X144018000Y-96773000D01*
X144018000Y-98807000D01*
X143997998Y-98875121D01*
X143944342Y-98921614D01*
X143892000Y-98933000D01*
X141858000Y-98933000D01*
X141789879Y-98912998D01*
X141743386Y-98859342D01*
X141732000Y-98807000D01*
X141732000Y-96773000D01*
X141752002Y-96704879D01*
X141805658Y-96658386D01*
X141858000Y-96647000D01*
X143892000Y-96647000D01*
X143960121Y-96667002D01*
G37*
%TD.AperFunction*%
%TA.AperFunction,NonConductor*%
G36*
X147174694Y-99205306D02*
G01*
X147193000Y-99249500D01*
X147193000Y-100457000D01*
X150940500Y-100457000D01*
X150984694Y-100475306D01*
X151003000Y-100519500D01*
X151003000Y-101410500D01*
X150984694Y-101454694D01*
X150940500Y-101473000D01*
X144334500Y-101473000D01*
X144290306Y-101454694D01*
X144272000Y-101410500D01*
X144272000Y-99249500D01*
X144290306Y-99205306D01*
X144334500Y-99187000D01*
X147130500Y-99187000D01*
X147174694Y-99205306D01*
G37*
%TD.AperFunction*%
%TA.AperFunction,NonConductor*%
G36*
X150984694Y-104285306D02*
G01*
X151003000Y-104329500D01*
X151003000Y-105220500D01*
X150984694Y-105264694D01*
X150940500Y-105283000D01*
X148463000Y-105283000D01*
X148463000Y-109030500D01*
X148444694Y-109074694D01*
X148400500Y-109093000D01*
X144334500Y-109093000D01*
X144290306Y-109074694D01*
X144272000Y-109030500D01*
X144272000Y-106869500D01*
X144290306Y-106825306D01*
X144334500Y-106807000D01*
X148082000Y-106807000D01*
X148082000Y-104329500D01*
X148100306Y-104285306D01*
X148144500Y-104267000D01*
X150940500Y-104267000D01*
X150984694Y-104285306D01*
G37*
%TD.AperFunction*%
%TA.AperFunction,NonConductor*%
G36*
X150984694Y-103015306D02*
G01*
X151003000Y-103059500D01*
X151003000Y-103950500D01*
X150984694Y-103994694D01*
X150940500Y-104013000D01*
X147828000Y-104013000D01*
X147828000Y-106490500D01*
X147809694Y-106534694D01*
X147765500Y-106553000D01*
X144334500Y-106553000D01*
X144290306Y-106534694D01*
X144272000Y-106490500D01*
X144272000Y-104329500D01*
X144290306Y-104285306D01*
X144334500Y-104267000D01*
X147447000Y-104267000D01*
X147447000Y-103059500D01*
X147465306Y-103015306D01*
X147509500Y-102997000D01*
X150940500Y-102997000D01*
X150984694Y-103015306D01*
G37*
%TD.AperFunction*%
M02*
