%TF.GenerationSoftware,KiCad,Pcbnew,(6.0.0)*%
%TF.CreationDate,2022-12-04T21:49:26+01:00*%
%TF.ProjectId,SOIC-8 Breakout,534f4943-2d38-4204-9272-65616b6f7574,rev?*%
%TF.SameCoordinates,Original*%
%TF.FileFunction,Soldermask,Bot*%
%TF.FilePolarity,Negative*%
%FSLAX46Y46*%
G04 Gerber Fmt 4.6, Leading zero omitted, Abs format (unit mm)*
G04 Created by KiCad (PCBNEW (6.0.0)) date 2022-12-04 21:49:26*
%MOMM*%
%LPD*%
G01*
G04 APERTURE LIST*
G04 APERTURE END LIST*
G36*
X150945121Y-102382002D02*
G01*
X150991614Y-102435658D01*
X151003000Y-102488000D01*
X151003000Y-102617000D01*
X150982998Y-102685121D01*
X150929342Y-102731614D01*
X150877000Y-102743000D01*
X149478000Y-102743000D01*
X149409879Y-102722998D01*
X149363386Y-102669342D01*
X149352000Y-102617000D01*
X149352000Y-102488000D01*
X149372002Y-102419879D01*
X149425658Y-102373386D01*
X149478000Y-102362000D01*
X150877000Y-102362000D01*
X150945121Y-102382002D01*
G37*
G36*
X155390121Y-102382002D02*
G01*
X155436614Y-102435658D01*
X155448000Y-102488000D01*
X155448000Y-102617000D01*
X155427998Y-102685121D01*
X155374342Y-102731614D01*
X155322000Y-102743000D01*
X153923000Y-102743000D01*
X153854879Y-102722998D01*
X153808386Y-102669342D01*
X153797000Y-102617000D01*
X153797000Y-102488000D01*
X153817002Y-102419879D01*
X153870658Y-102373386D01*
X153923000Y-102362000D01*
X155322000Y-102362000D01*
X155390121Y-102382002D01*
G37*
G36*
X150945121Y-101112002D02*
G01*
X150991614Y-101165658D01*
X151003000Y-101218000D01*
X151003000Y-101347000D01*
X150982998Y-101415121D01*
X150929342Y-101461614D01*
X150877000Y-101473000D01*
X149478000Y-101473000D01*
X149409879Y-101452998D01*
X149363386Y-101399342D01*
X149352000Y-101347000D01*
X149352000Y-101218000D01*
X149372002Y-101149879D01*
X149425658Y-101103386D01*
X149478000Y-101092000D01*
X150877000Y-101092000D01*
X150945121Y-101112002D01*
G37*
G36*
X155390121Y-101112002D02*
G01*
X155436614Y-101165658D01*
X155448000Y-101218000D01*
X155448000Y-101347000D01*
X155427998Y-101415121D01*
X155374342Y-101461614D01*
X155322000Y-101473000D01*
X153923000Y-101473000D01*
X153854879Y-101452998D01*
X153808386Y-101399342D01*
X153797000Y-101347000D01*
X153797000Y-101218000D01*
X153817002Y-101149879D01*
X153870658Y-101103386D01*
X153923000Y-101092000D01*
X155322000Y-101092000D01*
X155390121Y-101112002D01*
G37*
G36*
X150945121Y-100477002D02*
G01*
X150991614Y-100530658D01*
X151003000Y-100583000D01*
X151003000Y-100712000D01*
X150982998Y-100780121D01*
X150929342Y-100826614D01*
X150877000Y-100838000D01*
X149478000Y-100838000D01*
X149409879Y-100817998D01*
X149363386Y-100764342D01*
X149352000Y-100712000D01*
X149352000Y-100583000D01*
X149372002Y-100514879D01*
X149425658Y-100468386D01*
X149478000Y-100457000D01*
X150877000Y-100457000D01*
X150945121Y-100477002D01*
G37*
G36*
X163899121Y-93873002D02*
G01*
X163945614Y-93926658D01*
X163957000Y-93979000D01*
X163957000Y-109221000D01*
X163936998Y-109289121D01*
X163883342Y-109335614D01*
X163831000Y-109347000D01*
X140969000Y-109347000D01*
X140900879Y-109326998D01*
X140854386Y-109273342D01*
X140843000Y-109221000D01*
X140843000Y-104248885D01*
X148463000Y-104248885D01*
X148467475Y-104264124D01*
X148468865Y-104265329D01*
X148476548Y-104267000D01*
X156318885Y-104267000D01*
X156334124Y-104262525D01*
X156335329Y-104261135D01*
X156337000Y-104253452D01*
X156337000Y-98951115D01*
X156332525Y-98935876D01*
X156331135Y-98934671D01*
X156323452Y-98933000D01*
X148481115Y-98933000D01*
X148465876Y-98937475D01*
X148464671Y-98938865D01*
X148463000Y-98946548D01*
X148463000Y-104248885D01*
X140843000Y-104248885D01*
X140843000Y-93979000D01*
X140863002Y-93910879D01*
X140916658Y-93864386D01*
X140969000Y-93853000D01*
X163831000Y-93853000D01*
X163899121Y-93873002D01*
G37*
G36*
X150945121Y-101747002D02*
G01*
X150991614Y-101800658D01*
X151003000Y-101853000D01*
X151003000Y-101982000D01*
X150982998Y-102050121D01*
X150929342Y-102096614D01*
X150877000Y-102108000D01*
X149478000Y-102108000D01*
X149409879Y-102087998D01*
X149363386Y-102034342D01*
X149352000Y-101982000D01*
X149352000Y-101853000D01*
X149372002Y-101784879D01*
X149425658Y-101738386D01*
X149478000Y-101727000D01*
X150877000Y-101727000D01*
X150945121Y-101747002D01*
G37*
G36*
X155390121Y-101747002D02*
G01*
X155436614Y-101800658D01*
X155448000Y-101853000D01*
X155448000Y-101982000D01*
X155427998Y-102050121D01*
X155374342Y-102096614D01*
X155322000Y-102108000D01*
X153923000Y-102108000D01*
X153854879Y-102087998D01*
X153808386Y-102034342D01*
X153797000Y-101982000D01*
X153797000Y-101853000D01*
X153817002Y-101784879D01*
X153870658Y-101738386D01*
X153923000Y-101727000D01*
X155322000Y-101727000D01*
X155390121Y-101747002D01*
G37*
G36*
X155390121Y-100477002D02*
G01*
X155436614Y-100530658D01*
X155448000Y-100583000D01*
X155448000Y-100712000D01*
X155427998Y-100780121D01*
X155374342Y-100826614D01*
X155322000Y-100838000D01*
X153923000Y-100838000D01*
X153854879Y-100817998D01*
X153808386Y-100764342D01*
X153797000Y-100712000D01*
X153797000Y-100583000D01*
X153817002Y-100514879D01*
X153870658Y-100468386D01*
X153923000Y-100457000D01*
X155322000Y-100457000D01*
X155390121Y-100477002D01*
G37*
M02*
