%TF.GenerationSoftware,KiCad,Pcbnew,(6.0.10)*%
%TF.CreationDate,2023-01-04T22:25:59+01:00*%
%TF.ProjectId,SOIC-8 Breakout,534f4943-2d38-4204-9272-65616b6f7574,rev?*%
%TF.SameCoordinates,Original*%
%TF.FileFunction,Legend,Top*%
%TF.FilePolarity,Positive*%
%FSLAX46Y46*%
G04 Gerber Fmt 4.6, Leading zero omitted, Abs format (unit mm)*
G04 Created by KiCad (PCBNEW (6.0.10)) date 2023-01-04 22:25:59*
%MOMM*%
%LPD*%
G01*
G04 APERTURE LIST*
%ADD10C,0.120000*%
G04 APERTURE END LIST*
D10*
%TO.C,REF\u002A\u002A*%
X158609420Y-103380000D02*
X158890580Y-103380000D01*
X158609420Y-102360000D02*
X158890580Y-102360000D01*
X151270580Y-105920000D02*
X150989420Y-105920000D01*
X151270580Y-104900000D02*
X150989420Y-104900000D01*
X146287258Y-104887500D02*
X145812742Y-104887500D01*
X146287258Y-105932500D02*
X145812742Y-105932500D01*
X145909420Y-103380000D02*
X146190580Y-103380000D01*
X145909420Y-102360000D02*
X146190580Y-102360000D01*
X158987258Y-97267500D02*
X158512742Y-97267500D01*
X158987258Y-98312500D02*
X158512742Y-98312500D01*
X145909420Y-99820000D02*
X146190580Y-99820000D01*
X145909420Y-100840000D02*
X146190580Y-100840000D01*
X153529420Y-98300000D02*
X153810580Y-98300000D01*
X153529420Y-97280000D02*
X153810580Y-97280000D01*
X152400000Y-104160000D02*
X154350000Y-104160000D01*
X152400000Y-99040000D02*
X148950000Y-99040000D01*
X152400000Y-104160000D02*
X150450000Y-104160000D01*
X152400000Y-99040000D02*
X154350000Y-99040000D01*
X153810580Y-104900000D02*
X153529420Y-104900000D01*
X153810580Y-105920000D02*
X153529420Y-105920000D01*
X158609420Y-100840000D02*
X158890580Y-100840000D01*
X158609420Y-99820000D02*
X158890580Y-99820000D01*
X151270580Y-98300000D02*
X150989420Y-98300000D01*
X151270580Y-97280000D02*
X150989420Y-97280000D01*
X158987258Y-105932500D02*
X158512742Y-105932500D01*
X158987258Y-104887500D02*
X158512742Y-104887500D01*
X145812742Y-98312500D02*
X146287258Y-98312500D01*
X145812742Y-97267500D02*
X146287258Y-97267500D01*
%TD*%
M02*
