%TF.GenerationSoftware,KiCad,Pcbnew,(6.0.0)*%
%TF.CreationDate,2022-12-04T21:56:15+01:00*%
%TF.ProjectId,SOIC-20 Breakout,534f4943-2d32-4302-9042-7265616b6f75,rev?*%
%TF.SameCoordinates,Original*%
%TF.FileFunction,Soldermask,Top*%
%TF.FilePolarity,Negative*%
%FSLAX46Y46*%
G04 Gerber Fmt 4.6, Leading zero omitted, Abs format (unit mm)*
G04 Created by KiCad (PCBNEW (6.0.0)) date 2022-12-04 21:56:15*
%MOMM*%
%LPD*%
G01*
G04 APERTURE LIST*
G04 APERTURE END LIST*
G36*
X150730694Y-95522306D02*
G01*
X150749000Y-95566500D01*
X150749000Y-96203500D01*
X150730694Y-96247694D01*
X150686500Y-96266000D01*
X147128500Y-96266000D01*
X147084306Y-96247694D01*
X147066000Y-96203500D01*
X147066000Y-95566500D01*
X147084306Y-95522306D01*
X147128500Y-95504000D01*
X150686500Y-95504000D01*
X150730694Y-95522306D01*
G37*
G36*
X150730694Y-106952306D02*
G01*
X150749000Y-106996500D01*
X150749000Y-107633500D01*
X150730694Y-107677694D01*
X150686500Y-107696000D01*
X147128500Y-107696000D01*
X147084306Y-107677694D01*
X147066000Y-107633500D01*
X147066000Y-106996500D01*
X147084306Y-106952306D01*
X147128500Y-106934000D01*
X150686500Y-106934000D01*
X150730694Y-106952306D01*
G37*
G36*
X157715694Y-96792306D02*
G01*
X157734000Y-96836500D01*
X157734000Y-97473500D01*
X157715694Y-97517694D01*
X157671500Y-97536000D01*
X154113500Y-97536000D01*
X154069306Y-97517694D01*
X154051000Y-97473500D01*
X154051000Y-96836500D01*
X154069306Y-96792306D01*
X154113500Y-96774000D01*
X157671500Y-96774000D01*
X157715694Y-96792306D01*
G37*
G36*
X157715694Y-101872306D02*
G01*
X157734000Y-101916500D01*
X157734000Y-102553500D01*
X157715694Y-102597694D01*
X157671500Y-102616000D01*
X154113500Y-102616000D01*
X154069306Y-102597694D01*
X154051000Y-102553500D01*
X154051000Y-101916500D01*
X154069306Y-101872306D01*
X154113500Y-101854000D01*
X157671500Y-101854000D01*
X157715694Y-101872306D01*
G37*
G36*
X157715694Y-106952306D02*
G01*
X157734000Y-106996500D01*
X157734000Y-107633500D01*
X157715694Y-107677694D01*
X157671500Y-107696000D01*
X154113500Y-107696000D01*
X154069306Y-107677694D01*
X154051000Y-107633500D01*
X154051000Y-106996500D01*
X154069306Y-106952306D01*
X154113500Y-106934000D01*
X157671500Y-106934000D01*
X157715694Y-106952306D01*
G37*
G36*
X150730694Y-104412306D02*
G01*
X150749000Y-104456500D01*
X150749000Y-105093500D01*
X150730694Y-105137694D01*
X150686500Y-105156000D01*
X147128500Y-105156000D01*
X147084306Y-105137694D01*
X147066000Y-105093500D01*
X147066000Y-104456500D01*
X147084306Y-104412306D01*
X147128500Y-104394000D01*
X150686500Y-104394000D01*
X150730694Y-104412306D01*
G37*
G36*
X157715694Y-103142306D02*
G01*
X157734000Y-103186500D01*
X157734000Y-103823500D01*
X157715694Y-103867694D01*
X157671500Y-103886000D01*
X154113500Y-103886000D01*
X154069306Y-103867694D01*
X154051000Y-103823500D01*
X154051000Y-103186500D01*
X154069306Y-103142306D01*
X154113500Y-103124000D01*
X157671500Y-103124000D01*
X157715694Y-103142306D01*
G37*
G36*
X157715694Y-100602306D02*
G01*
X157734000Y-100646500D01*
X157734000Y-101283500D01*
X157715694Y-101327694D01*
X157671500Y-101346000D01*
X154113500Y-101346000D01*
X154069306Y-101327694D01*
X154051000Y-101283500D01*
X154051000Y-100646500D01*
X154069306Y-100602306D01*
X154113500Y-100584000D01*
X157671500Y-100584000D01*
X157715694Y-100602306D01*
G37*
G36*
X157715694Y-105682306D02*
G01*
X157734000Y-105726500D01*
X157734000Y-106363500D01*
X157715694Y-106407694D01*
X157671500Y-106426000D01*
X154113500Y-106426000D01*
X154069306Y-106407694D01*
X154051000Y-106363500D01*
X154051000Y-105726500D01*
X154069306Y-105682306D01*
X154113500Y-105664000D01*
X157671500Y-105664000D01*
X157715694Y-105682306D01*
G37*
G36*
X150730694Y-100602306D02*
G01*
X150749000Y-100646500D01*
X150749000Y-101283500D01*
X150730694Y-101327694D01*
X150686500Y-101346000D01*
X147128500Y-101346000D01*
X147084306Y-101327694D01*
X147066000Y-101283500D01*
X147066000Y-100646500D01*
X147084306Y-100602306D01*
X147128500Y-100584000D01*
X150686500Y-100584000D01*
X150730694Y-100602306D01*
G37*
G36*
X150730694Y-96792306D02*
G01*
X150749000Y-96836500D01*
X150749000Y-97473500D01*
X150730694Y-97517694D01*
X150686500Y-97536000D01*
X147128500Y-97536000D01*
X147084306Y-97517694D01*
X147066000Y-97473500D01*
X147066000Y-96836500D01*
X147084306Y-96792306D01*
X147128500Y-96774000D01*
X150686500Y-96774000D01*
X150730694Y-96792306D01*
G37*
G36*
X157715694Y-104412306D02*
G01*
X157734000Y-104456500D01*
X157734000Y-105093500D01*
X157715694Y-105137694D01*
X157671500Y-105156000D01*
X154113500Y-105156000D01*
X154069306Y-105137694D01*
X154051000Y-105093500D01*
X154051000Y-104456500D01*
X154069306Y-104412306D01*
X154113500Y-104394000D01*
X157671500Y-104394000D01*
X157715694Y-104412306D01*
G37*
G36*
X157715694Y-98062306D02*
G01*
X157734000Y-98106500D01*
X157734000Y-98743500D01*
X157715694Y-98787694D01*
X157671500Y-98806000D01*
X154113500Y-98806000D01*
X154069306Y-98787694D01*
X154051000Y-98743500D01*
X154051000Y-98106500D01*
X154069306Y-98062306D01*
X154113500Y-98044000D01*
X157671500Y-98044000D01*
X157715694Y-98062306D01*
G37*
G36*
X157715694Y-95522306D02*
G01*
X157734000Y-95566500D01*
X157734000Y-96203500D01*
X157715694Y-96247694D01*
X157671500Y-96266000D01*
X154113500Y-96266000D01*
X154069306Y-96247694D01*
X154051000Y-96203500D01*
X154051000Y-95566500D01*
X154069306Y-95522306D01*
X154113500Y-95504000D01*
X157671500Y-95504000D01*
X157715694Y-95522306D01*
G37*
G36*
X150730694Y-101872306D02*
G01*
X150749000Y-101916500D01*
X150749000Y-102553500D01*
X150730694Y-102597694D01*
X150686500Y-102616000D01*
X147128500Y-102616000D01*
X147084306Y-102597694D01*
X147066000Y-102553500D01*
X147066000Y-101916500D01*
X147084306Y-101872306D01*
X147128500Y-101854000D01*
X150686500Y-101854000D01*
X150730694Y-101872306D01*
G37*
G36*
X150730694Y-103142306D02*
G01*
X150749000Y-103186500D01*
X150749000Y-103823500D01*
X150730694Y-103867694D01*
X150686500Y-103886000D01*
X147128500Y-103886000D01*
X147084306Y-103867694D01*
X147066000Y-103823500D01*
X147066000Y-103186500D01*
X147084306Y-103142306D01*
X147128500Y-103124000D01*
X150686500Y-103124000D01*
X150730694Y-103142306D01*
G37*
G36*
X163938694Y-87521306D02*
G01*
X163957000Y-87565500D01*
X163957000Y-115634500D01*
X163938694Y-115678694D01*
X163894500Y-115697000D01*
X140905500Y-115697000D01*
X140861306Y-115678694D01*
X140843000Y-115634500D01*
X140843000Y-109334569D01*
X144653000Y-109334569D01*
X144656641Y-109343359D01*
X144665431Y-109347000D01*
X147434569Y-109347000D01*
X147443359Y-109343359D01*
X147447000Y-109334569D01*
X147447000Y-108139500D01*
X147465306Y-108095306D01*
X147509500Y-108077000D01*
X157290500Y-108077000D01*
X157334694Y-108095306D01*
X157353000Y-108139500D01*
X157353000Y-109334569D01*
X157356641Y-109343359D01*
X157365431Y-109347000D01*
X160134569Y-109347000D01*
X160143359Y-109343359D01*
X160147000Y-109334569D01*
X160147000Y-93865431D01*
X160143359Y-93856641D01*
X160134569Y-93853000D01*
X157365431Y-93853000D01*
X157356641Y-93856641D01*
X157353000Y-93865431D01*
X157353000Y-95060500D01*
X157334694Y-95104694D01*
X157290500Y-95123000D01*
X147509500Y-95123000D01*
X147465306Y-95104694D01*
X147447000Y-95060500D01*
X147447000Y-93865431D01*
X147443359Y-93856641D01*
X147434569Y-93853000D01*
X144665431Y-93853000D01*
X144656641Y-93856641D01*
X144653000Y-93865431D01*
X144653000Y-109334569D01*
X140843000Y-109334569D01*
X140843000Y-87565500D01*
X140861306Y-87521306D01*
X140905500Y-87503000D01*
X163894500Y-87503000D01*
X163938694Y-87521306D01*
G37*
G36*
X150730694Y-99332306D02*
G01*
X150749000Y-99376500D01*
X150749000Y-100013500D01*
X150730694Y-100057694D01*
X150686500Y-100076000D01*
X147128500Y-100076000D01*
X147084306Y-100057694D01*
X147066000Y-100013500D01*
X147066000Y-99376500D01*
X147084306Y-99332306D01*
X147128500Y-99314000D01*
X150686500Y-99314000D01*
X150730694Y-99332306D01*
G37*
G36*
X150730694Y-98062306D02*
G01*
X150749000Y-98106500D01*
X150749000Y-98743500D01*
X150730694Y-98787694D01*
X150686500Y-98806000D01*
X147128500Y-98806000D01*
X147084306Y-98787694D01*
X147066000Y-98743500D01*
X147066000Y-98106500D01*
X147084306Y-98062306D01*
X147128500Y-98044000D01*
X150686500Y-98044000D01*
X150730694Y-98062306D01*
G37*
G36*
X150730694Y-105682306D02*
G01*
X150749000Y-105726500D01*
X150749000Y-106363500D01*
X150730694Y-106407694D01*
X150686500Y-106426000D01*
X147128500Y-106426000D01*
X147084306Y-106407694D01*
X147066000Y-106363500D01*
X147066000Y-105726500D01*
X147084306Y-105682306D01*
X147128500Y-105664000D01*
X150686500Y-105664000D01*
X150730694Y-105682306D01*
G37*
G36*
X157715694Y-99332306D02*
G01*
X157734000Y-99376500D01*
X157734000Y-100013500D01*
X157715694Y-100057694D01*
X157671500Y-100076000D01*
X154113500Y-100076000D01*
X154069306Y-100057694D01*
X154051000Y-100013500D01*
X154051000Y-99376500D01*
X154069306Y-99332306D01*
X154113500Y-99314000D01*
X157671500Y-99314000D01*
X157715694Y-99332306D01*
G37*
M02*
