%TF.GenerationSoftware,KiCad,Pcbnew,(7.0.0)*%
%TF.CreationDate,2023-08-02T13:13:09+02:00*%
%TF.ProjectId,Lin Reg,4c696e20-5265-4672-9e6b-696361645f70,rev?*%
%TF.SameCoordinates,Original*%
%TF.FileFunction,Copper,L1,Top*%
%TF.FilePolarity,Positive*%
%FSLAX46Y46*%
G04 Gerber Fmt 4.6, Leading zero omitted, Abs format (unit mm)*
G04 Created by KiCad (PCBNEW (7.0.0)) date 2023-08-02 13:13:09*
%MOMM*%
%LPD*%
G01*
G04 APERTURE LIST*
G04 Aperture macros list*
%AMRoundRect*
0 Rectangle with rounded corners*
0 $1 Rounding radius*
0 $2 $3 $4 $5 $6 $7 $8 $9 X,Y pos of 4 corners*
0 Add a 4 corners polygon primitive as box body*
4,1,4,$2,$3,$4,$5,$6,$7,$8,$9,$2,$3,0*
0 Add four circle primitives for the rounded corners*
1,1,$1+$1,$2,$3*
1,1,$1+$1,$4,$5*
1,1,$1+$1,$6,$7*
1,1,$1+$1,$8,$9*
0 Add four rect primitives between the rounded corners*
20,1,$1+$1,$2,$3,$4,$5,0*
20,1,$1+$1,$4,$5,$6,$7,0*
20,1,$1+$1,$6,$7,$8,$9,0*
20,1,$1+$1,$8,$9,$2,$3,0*%
G04 Aperture macros list end*
%TA.AperFunction,ComponentPad*%
%ADD10RoundRect,0.425000X-0.425000X-0.425000X0.425000X-0.425000X0.425000X0.425000X-0.425000X0.425000X0*%
%TD*%
G04 APERTURE END LIST*
D10*
%TO.P,REF\u002A\u002A,1*%
%TO.N,N/C*%
X142240000Y-104140000D03*
%TD*%
%TA.AperFunction,NonConductor*%
G36*
X148400000Y-97679881D02*
G01*
X148446119Y-97726000D01*
X148463000Y-97789000D01*
X148463000Y-100966000D01*
X148446119Y-101029000D01*
X148400000Y-101075119D01*
X148337000Y-101092000D01*
X146685000Y-101092000D01*
X146685000Y-101108590D01*
X146685000Y-102744000D01*
X146668119Y-102807000D01*
X146622000Y-102853119D01*
X146559000Y-102870000D01*
X145541000Y-102870000D01*
X145478000Y-102853119D01*
X145431881Y-102807000D01*
X145415000Y-102744000D01*
X145415000Y-101108590D01*
X145415000Y-101092000D01*
X145398410Y-101092000D01*
X145033000Y-101092000D01*
X144970000Y-101075119D01*
X144923881Y-101029000D01*
X144907000Y-100966000D01*
X144907000Y-100346590D01*
X144907000Y-100330000D01*
X144890410Y-100330000D01*
X141223000Y-100330000D01*
X141160000Y-100313119D01*
X141113881Y-100267000D01*
X141097000Y-100204000D01*
X141097000Y-97789000D01*
X141113881Y-97726000D01*
X141160000Y-97679881D01*
X141223000Y-97663000D01*
X148337000Y-97663000D01*
X148400000Y-97679881D01*
G37*
%TD.AperFunction*%
%TA.AperFunction,NonConductor*%
G36*
X148400000Y-101235881D02*
G01*
X148446119Y-101282000D01*
X148463000Y-101345000D01*
X148463000Y-103887000D01*
X148446119Y-103950000D01*
X148400000Y-103996119D01*
X148337000Y-104013000D01*
X146176000Y-104013000D01*
X146113000Y-103996119D01*
X146066881Y-103950000D01*
X146050000Y-103887000D01*
X146050000Y-103123000D01*
X146066881Y-103060000D01*
X146113000Y-103013881D01*
X146176000Y-102997000D01*
X146795410Y-102997000D01*
X146812000Y-102997000D01*
X146812000Y-101345000D01*
X146828881Y-101282000D01*
X146875000Y-101235881D01*
X146938000Y-101219000D01*
X148337000Y-101219000D01*
X148400000Y-101235881D01*
G37*
%TD.AperFunction*%
%TA.AperFunction,NonConductor*%
G36*
X144717000Y-100473881D02*
G01*
X144763119Y-100520000D01*
X144780000Y-100583000D01*
X144780000Y-101219000D01*
X145162000Y-101219000D01*
X145225000Y-101235881D01*
X145271119Y-101282000D01*
X145288000Y-101345000D01*
X145288000Y-102997000D01*
X145797000Y-102997000D01*
X145860000Y-103013881D01*
X145906119Y-103060000D01*
X145923000Y-103123000D01*
X145923000Y-103887000D01*
X145906119Y-103950000D01*
X145860000Y-103996119D01*
X145797000Y-104013000D01*
X141223000Y-104013000D01*
X141160000Y-103996119D01*
X141113881Y-103950000D01*
X141097000Y-103887000D01*
X141097000Y-100583000D01*
X141113881Y-100520000D01*
X141160000Y-100473881D01*
X141223000Y-100457000D01*
X144654000Y-100457000D01*
X144717000Y-100473881D01*
G37*
%TD.AperFunction*%
M02*
