%TF.GenerationSoftware,KiCad,Pcbnew,(7.0.0)*%
%TF.CreationDate,2023-05-18T15:15:19+02:00*%
%TF.ProjectId,Power Strip,506f7765-7220-4537-9472-69702e6b6963,rev?*%
%TF.SameCoordinates,Original*%
%TF.FileFunction,Copper,L2,Bot*%
%TF.FilePolarity,Positive*%
%FSLAX46Y46*%
G04 Gerber Fmt 4.6, Leading zero omitted, Abs format (unit mm)*
G04 Created by KiCad (PCBNEW (7.0.0)) date 2023-05-18 15:15:19*
%MOMM*%
%LPD*%
G01*
G04 APERTURE LIST*
G04 APERTURE END LIST*
%TA.AperFunction,NonConductor*%
G36*
X149437500Y-101017113D02*
G01*
X149482887Y-101062500D01*
X149499500Y-101124500D01*
X149499500Y-101499901D01*
X149499459Y-101500000D01*
X149499500Y-101500099D01*
X149499617Y-101500383D01*
X149500000Y-101500541D01*
X149500099Y-101500500D01*
X150499901Y-101500500D01*
X150500000Y-101500541D01*
X150500383Y-101500383D01*
X150500500Y-101500099D01*
X150500541Y-101500000D01*
X150500500Y-101499901D01*
X150500500Y-101124500D01*
X150517113Y-101062500D01*
X150562500Y-101017113D01*
X150624500Y-101000500D01*
X179875500Y-101000500D01*
X179937500Y-101017113D01*
X179982887Y-101062500D01*
X179999500Y-101124500D01*
X179999500Y-105875500D01*
X179982887Y-105937500D01*
X179937500Y-105982887D01*
X179875500Y-105999500D01*
X150624500Y-105999500D01*
X150562500Y-105982887D01*
X150517113Y-105937500D01*
X150500500Y-105875500D01*
X150500500Y-105512025D01*
X150500500Y-105500099D01*
X150500541Y-105500000D01*
X150500383Y-105499617D01*
X150500099Y-105499500D01*
X150500000Y-105499459D01*
X150499901Y-105499500D01*
X149500099Y-105499500D01*
X149500000Y-105499459D01*
X149499901Y-105499500D01*
X149499617Y-105499617D01*
X149499459Y-105500000D01*
X149499500Y-105500099D01*
X149499500Y-105512025D01*
X149499500Y-105875500D01*
X149482887Y-105937500D01*
X149437500Y-105982887D01*
X149375500Y-105999500D01*
X120124500Y-105999500D01*
X120062500Y-105982887D01*
X120017113Y-105937500D01*
X120000500Y-105875500D01*
X120000500Y-101124500D01*
X120017113Y-101062500D01*
X120062500Y-101017113D01*
X120124500Y-101000500D01*
X149375500Y-101000500D01*
X149437500Y-101017113D01*
G37*
%TD.AperFunction*%
M02*
